<?xml version="1.0" standalone="no"?>
<!DOCTYPE svg PUBLIC "-//W3C//DTD SVG 20010904//EN"
 "http://www.w3.org/TR/2001/REC-SVG-20010904/DTD/svg10.dtd">
<svg version="1.0" xmlns="http://www.w3.org/2000/svg"
 width="700.000000pt" height="700.000000pt" viewBox="0 0 700.000000 700.000000"
 preserveAspectRatio="xMidYMid meet">
<metadata>
Created by potrace 1.16, written by Peter Selinger 2001-2019
</metadata>
<g transform="translate(0.000000,700.000000) scale(0.100000,-0.100000)"
fill="#000000" stroke="none">
<path d="M3206 6614 c-71 -8 -135 -19 -142 -25 -7 -6 -17 -8 -22 -5 -10 6
-185 -40 -274 -71 -26 -9 -44 -21 -41 -26 3 -6 1 -7 -6 -3 -10 7 -148 -39
-161 -54 -3 -3 -39 -21 -80 -40 -41 -19 -77 -38 -80 -41 -3 -3 -21 -14 -40
-25 -19 -10 -37 -21 -40 -25 -3 -3 -22 -16 -43 -28 -30 -18 -36 -26 -25 -33
10 -7 8 -8 -5 -4 -15 5 -63 -19 -87 -44 -3 -3 -23 -18 -45 -35 -68 -50 -205
-187 -198 -198 3 -6 1 -7 -6 -3 -13 8 -73 -53 -65 -65 2 -4 -1 -11 -7 -15 -8
-5 -10 -2 -4 7 4 8 -7 -2 -24 -21 -17 -19 -29 -41 -26 -48 3 -7 -1 -12 -9 -10
-14 3 -73 -72 -136 -172 -19 -30 -37 -57 -40 -60 -23 -22 -151 -283 -146 -297
3 -8 2 -11 -3 -8 -13 8 -23 -28 -16 -62 4 -20 3 -23 -3 -9 -7 16 -12 8 -29
-40 -38 -111 -44 -134 -37 -145 4 -7 3 -9 -3 -6 -6 4 -21 -44 -37 -126 -15
-72 -33 -157 -39 -187 -17 -77 -15 -503 2 -600 21 -123 61 -303 75 -340 7 -19
24 -69 36 -110 24 -76 75 -196 110 -260 10 -19 32 -60 48 -90 28 -51 110 -182
129 -205 5 -5 19 -26 32 -45 13 -19 34 -45 45 -57 12 -11 46 -50 76 -86 36
-43 61 -64 71 -61 9 3 31 -10 50 -27 19 -18 45 -38 59 -46 19 -10 21 -13 7
-13 -9 0 -38 19 -62 41 -53 49 -72 47 -22 -3 50 -49 148 -138 152 -138 2 0 15
-10 29 -23 23 -21 133 -97 236 -163 65 -41 183 -101 270 -136 41 -17 79 -35
84 -39 6 -5 17 -9 26 -9 8 0 58 -13 110 -30 52 -16 117 -30 145 -31 34 0 44
-3 30 -8 -14 -6 -3 -10 40 -15 33 -4 78 -9 100 -12 32 -4 37 -3 25 6 -13 10
-12 11 3 6 10 -3 23 -6 28 -6 6 0 8 -4 5 -9 -8 -12 97 -21 250 -21 129 0 429
32 463 49 9 5 34 12 56 16 41 7 184 49 220 64 11 5 56 24 100 43 44 18 82 36
83 41 2 4 9 7 15 7 12 0 138 61 147 71 3 3 21 14 40 25 73 40 206 138 286 209
12 11 32 28 45 39 18 15 19 20 8 28 -11 7 -9 8 5 4 21 -7 79 48 186 174 30 36
60 71 67 77 24 26 162 241 198 308 20 39 40 75 45 80 4 6 11 21 15 34 4 14 22
56 40 95 46 100 46 104 34 149 -6 24 -8 60 -3 86 6 40 8 43 14 21 l7 -25 12
25 12 25 -6 -25 c-2 -14 -5 -29 -5 -34 0 -5 -7 -3 -15 4 -13 11 -15 8 -14 -16
1 -16 4 -40 8 -54 6 -20 11 -10 34 60 104 329 122 731 47 1118 -17 88 -27 118
-46 137 -13 13 -24 30 -24 37 1 7 7 2 15 -12 35 -61 13 21 -60 220 -15 43
-145 310 -155 320 -3 3 -27 39 -54 80 -59 91 -116 163 -124 156 -2 -3 1 -13 9
-22 12 -15 12 -17 -1 -12 -8 3 -15 16 -15 30 0 27 -65 109 -166 208 -102 100
-142 130 -164 124 -16 -4 -17 -3 -5 5 13 9 12 13 -7 26 -12 8 -28 21 -35 28
-28 26 -182 128 -218 144 -8 4 -17 10 -20 14 -7 9 -203 106 -255 126 -112 42
-208 73 -213 68 -3 -2 -10 -1 -16 4 -23 20 -177 53 -325 72 -178 22 -350 23
-535 3z m297 -1 c-13 -2 -33 -2 -45 0 -13 2 -3 4 22 4 25 0 35 -2 23 -4z m90
-10 c-7 -2 -19 -2 -25 0 -7 3 -2 5 12 5 14 0 19 -2 13 -5z m-473 -43 c0 -5
-14 -10 -31 -10 -17 0 -28 4 -24 10 3 6 17 10 31 10 13 0 24 -4 24 -10z m754
-5 c-4 -8 -8 -15 -10 -15 -2 0 -4 7 -4 15 0 8 4 15 10 15 5 0 7 -7 4 -15z
m-847 -1 c-3 -3 -12 -4 -19 -1 -8 3 -5 6 6 6 11 1 17 -2 13 -5z m-53 -15 c-5
-9 4 -10 32 -5 28 5 35 4 24 -3 -8 -6 -32 -11 -53 -11 -32 0 -36 2 -25 15 15
17 32 20 22 4z m989 -3 c-2 -3 -3 -10 -3 -16 0 -12 -45 -12 -80 1 -21 7 -20 8
13 6 43 -3 46 0 15 13 -18 7 -15 8 17 5 22 -1 39 -5 38 -9z m-1034 0 c-2 -2
-22 -6 -44 -9 -28 -5 -34 -4 -20 3 19 8 73 14 64 6z m1106 -6 c4 -6 -7 -10
-27 -10 -25 0 -29 3 -18 10 19 13 37 13 45 0z m-1105 -14 c0 -2 -7 -6 -15 -10
-8 -3 -15 -1 -15 4 0 6 7 10 15 10 8 0 15 -2 15 -4z m740 -6 c0 -5 -8 -10 -17
-10 -15 0 -16 2 -3 10 19 12 20 12 20 0z m163 3 c-7 -2 -21 -2 -30 0 -10 3 -4
5 12 5 17 0 24 -2 18 -5z m-118 -24 c-4 -5 -13 -9 -22 -9 -13 0 -13 3 -3 15
13 15 35 11 25 -6z m145 0 c-34 -10 -98 -11 -103 -1 -3 4 25 7 61 8 43 0 58
-2 42 -7z m140 -5 c0 -9 -5 -14 -12 -12 -18 6 -21 28 -4 28 9 0 16 -7 16 -16z
m230 -6 c10 -6 6 -7 -15 -3 -16 3 -36 6 -42 7 -7 1 -13 5 -13 10 0 9 47 0 70
-14z m-1430 -9 c0 -14 -17 -10 -23 5 -4 10 -1 13 9 9 7 -3 14 -9 14 -14z
m1048 -9 c35 -5 69 -7 77 -3 8 3 15 1 15 -4 0 -12 129 -34 160 -27 17 4 21 3
12 -3 -9 -7 6 -15 50 -28 35 -10 68 -22 73 -26 6 -4 33 -14 60 -22 51 -15 276
-122 285 -136 11 -16 49 -31 67 -25 14 5 15 4 4 -4 -11 -8 -10 -12 5 -20 32
-17 84 -25 84 -13 0 6 -6 11 -14 11 -8 0 -17 6 -20 13 -5 10 -7 10 -12 0 -7
-15 -24 -17 -24 -4 0 5 10 13 23 17 12 4 26 12 30 18 6 7 7 4 3 -6 -3 -11 2
-22 15 -29 12 -6 18 -17 15 -25 -6 -16 15 -28 61 -37 27 -5 73 -37 73 -51 0
-2 -37 14 -82 36 -51 25 -90 38 -106 35 -13 -2 -44 2 -69 9 -121 37 -358 27
-563 -24 -142 -34 -160 -36 -156 -9 2 15 -60 160 -80 186 -2 2 -11 -2 -20 -10
-16 -13 -16 -12 -4 7 11 19 9 27 -21 70 -50 73 -75 98 -93 91 -21 -8 -21 -29
0 -25 10 2 19 -3 21 -9 3 -7 -2 -13 -11 -13 -9 0 -16 -6 -17 -12 0 -7 -5 0
-11 16 -10 26 -8 32 15 52 20 17 35 22 59 18 18 -2 61 -9 96 -14z m65 13 c-7
-2 -21 -2 -30 0 -10 3 -4 5 12 5 17 0 24 -2 18 -5z m287 -13 c0 -5 -4 -10 -9
-10 -6 0 -13 5 -16 10 -3 6 1 10 9 10 9 0 16 -4 16 -10z m-1460 -12 c0 -10
-31 -10 -48 0 -8 6 -2 9 18 9 16 0 30 -4 30 -9z m1535 2 c13 -5 14 -9 5 -9 -8
0 -24 4 -35 9 -13 5 -14 9 -5 9 8 0 24 -4 35 -9z m-1618 -6 c-3 -3 -12 -4 -19
-1 -8 3 -5 6 6 6 11 1 17 -2 13 -5z m126 -1 c-7 -2 -19 -2 -25 0 -7 3 -2 5 12
5 14 0 19 -2 13 -5z m1458 -7 c4 2 11 -1 15 -7 5 -9 -3 -10 -32 -6 -21 4 -52
7 -69 8 -25 0 -27 2 -10 8 11 4 35 4 54 0 19 -4 38 -6 42 -3z m-1247 -11 c3
-9 0 -15 -9 -15 -9 0 -12 6 -9 15 4 8 7 15 9 15 2 0 5 -7 9 -15z m61 5 c13 -6
15 -9 5 -9 -8 0 -22 4 -30 9 -18 12 -2 12 25 0z m141 -1 c3 -6 -6 -23 -20 -38
-18 -19 -25 -34 -20 -47 4 -14 3 -16 -4 -5 -8 11 -12 10 -21 -8 -7 -12 -9 -27
-4 -33 13 -22 10 -106 -3 -101 -9 3 -10 13 -3 36 11 40 11 40 -2 31 -8 -4 -9
0 -4 15 15 49 -8 14 -55 -82 -49 -101 -57 -126 -42 -128 4 0 19 -3 35 -5 21
-4 29 0 37 18 11 25 16 34 72 119 88 135 197 209 305 209 60 0 136 -23 163
-50 9 -8 30 -26 46 -40 16 -14 49 -48 73 -75 40 -45 43 -47 39 -23 -3 16 -1
25 4 21 6 -3 8 -17 5 -32 -4 -17 1 -35 13 -51 11 -14 20 -31 20 -37 0 -7 12
-13 28 -13 24 0 29 -5 39 -40 5 -22 6 -40 2 -40 -5 0 -9 9 -9 19 0 11 -5 23
-10 26 -6 4 -8 11 -5 16 4 5 -1 9 -9 9 -18 0 -22 -25 -5 -36 6 -3 -34 -24 -90
-46 -55 -22 -148 -63 -205 -93 l-106 -54 -87 46 c-49 24 -115 56 -148 70 -33
14 -73 31 -90 38 -16 8 -50 17 -74 20 -24 4 -58 16 -75 26 -17 10 -51 21 -76
25 -25 4 -50 10 -56 15 -6 5 -28 11 -50 13 -21 2 -66 9 -99 15 -33 6 -96 11
-140 11 l-80 1 29 24 c47 38 289 154 364 175 24 6 40 15 37 20 -3 6 1 7 10 4
9 -4 26 -2 38 4 18 9 191 57 219 61 4 1 10 -4 14 -10z m144 1 c-8 -5 -26 -9
-40 -9 -23 0 -23 1 -5 9 11 5 29 9 40 9 17 1 17 -1 5 -9z m47 4 c-3 -3 -12 -4
-19 -1 -8 3 -5 6 6 6 11 1 17 -2 13 -5z m92 2 c-2 -2 -17 -6 -34 -10 -22 -5
-26 -4 -15 4 14 9 59 15 49 6z m881 -6 c18 -12 2 -12 -25 0 -13 6 -15 9 -5 9
8 0 22 -4 30 -9z m-1453 -6 c-3 -3 -12 -4 -19 -1 -8 3 -5 6 6 6 11 1 17 -2 13
-5z m53 -4 c0 -5 -8 -10 -17 -10 -15 0 -16 2 -3 10 19 12 20 12 20 0z m638 4
c12 -4 22 -10 22 -15 0 -9 -47 -2 -69 11 -14 8 -13 9 4 10 11 0 30 -3 43 -6z
m792 -24 c5 9 9 9 14 1 4 -6 3 -11 -3 -11 -6 0 -8 -7 -5 -15 4 -8 12 -15 20
-15 8 0 14 -4 14 -9 0 -5 -18 -8 -40 -7 -37 1 -38 1 -17 14 22 13 22 13 -3 8
-14 -3 -32 -1 -40 5 -12 8 -10 9 8 4 14 -4 22 -2 22 5 0 7 -9 14 -20 17 -11 3
-20 9 -20 14 0 5 14 2 31 -7 24 -12 33 -13 39 -4z m-1475 0 c-3 -5 -13 -10
-21 -10 -8 0 -12 5 -9 10 3 6 13 10 21 10 8 0 12 -4 9 -10z m755 1 c0 -5 -7
-14 -15 -21 -12 -10 -15 -10 -15 2 0 8 3 18 7 21 9 10 23 9 23 -2z m565 -1 c7
-12 -2 -12 -30 0 -19 8 -19 9 2 9 12 1 25 -3 28 -9z m-925 -10 c-19 -13 -30
-13 -30 0 0 6 10 10 23 10 18 0 19 -2 7 -10z m450 -10 c0 -5 -7 -10 -15 -10
-8 0 -15 5 -15 10 0 6 7 10 15 10 8 0 15 -4 15 -10z m716 -18 c-6 -6 -56 10
-56 18 0 5 13 3 30 -3 16 -6 28 -13 26 -15z m-1941 8 c3 -5 1 -10 -4 -10 -6 0
-11 5 -11 10 0 6 2 10 4 10 3 0 8 -4 11 -10z m715 -26 c0 -12 -4 -12 -20 -2
-17 11 -22 10 -30 -2 -15 -23 -12 -34 5 -20 10 9 15 9 15 1 0 -6 -5 -11 -11
-11 -6 0 -8 -7 -5 -16 3 -8 2 -12 -4 -9 -6 3 -10 1 -10 -4 0 -14 -27 -14 -35
-1 -3 5 8 27 25 49 23 28 37 37 51 34 10 -3 19 -12 19 -19z m-495 6 c-3 -5
-14 -10 -23 -10 -15 0 -15 2 -2 10 20 13 33 13 25 0z m980 0 c-3 -5 -11 -10
-16 -10 -6 0 -7 5 -4 10 3 6 11 10 16 10 6 0 7 -4 4 -10z m23 -24 c0 -19 -3
-22 -13 -13 -8 8 -9 15 -1 24 6 7 12 12 12 13 1 0 2 -11 2 -24z m26 9 c3 -8 1
-15 -4 -15 -6 0 -10 7 -10 15 0 8 2 15 4 15 2 0 6 -7 10 -15z m-79 -13 c-3 -3
-11 0 -18 7 -9 10 -8 11 6 5 10 -3 15 -9 12 -12z m819 3 c3 -8 17 -15 31 -15
14 0 25 -4 25 -8 0 -5 10 -14 23 -20 17 -8 18 -11 5 -11 -9 -1 -20 4 -23 9
-10 16 -25 12 -19 -5 4 -8 12 -15 19 -15 7 0 23 -9 36 -21 l24 -20 -24 11
c-12 7 -31 10 -41 7 -14 -3 -17 -1 -13 11 4 8 2 13 -3 9 -6 -3 -16 -2 -24 4
-13 7 -12 9 2 9 11 0 15 5 12 15 -4 8 -15 15 -25 15 -10 0 -19 7 -19 15 0 9
-6 12 -15 9 -8 -4 -15 -1 -15 5 0 17 37 13 44 -4z m-2134 -9 c0 -3 -4 -8 -10
-11 -5 -3 -10 -1 -10 4 0 6 5 11 10 11 6 0 10 -2 10 -4z m2067 -2 c-3 -3 -12
-4 -19 -1 -8 3 -5 6 6 6 11 1 17 -2 13 -5z m-684 -28 c3 3 3 -3 0 -15 -3 -11
-9 -18 -14 -15 -5 3 -7 9 -4 14 3 5 -4 11 -15 15 -11 3 -20 11 -20 16 0 5 10
3 23 -6 13 -8 26 -12 30 -9z m742 5 c18 -7 17 -8 -6 -13 -17 -3 -26 0 -26 9 0
15 3 15 32 4z m-1920 -21 c-3 -5 -12 -10 -18 -10 -7 0 -6 4 3 10 19 12 23 12
15 0z m-285 -35 c-7 -9 -15 -13 -18 -10 -3 2 1 11 8 20 7 9 15 13 18 10 3 -2
-1 -11 -8 -20z m1520 -2 c0 -22 2 -25 10 -13 6 9 10 10 10 3 0 -6 -4 -15 -10
-18 -5 -3 -10 -13 -10 -21 0 -8 5 -12 10 -9 6 3 10 -2 10 -12 0 -11 5 -24 12
-31 7 -7 8 -12 2 -12 -17 0 -48 63 -50 103 -1 20 2 37 7 37 5 0 9 -12 9 -27z
m-724 -10 c-10 -10 -19 5 -10 18 6 11 8 11 12 0 2 -7 1 -15 -2 -18z m1569 17
c3 -5 -1 -10 -9 -10 -9 0 -16 5 -16 10 0 6 4 10 9 10 6 0 13 -4 16 -10z
m-1515 -20 c0 -5 -4 -10 -10 -10 -5 0 -10 5 -10 10 0 6 5 10 10 10 6 0 10 -4
10 -10z m-847 -12 c-2 -5 -13 -8 -24 -8 -10 0 -19 3 -19 8 0 4 11 7 24 7 13 0
22 -3 19 -7z m2379 -10 c-8 -8 -17 -8 -34 0 -22 10 -21 11 12 11 26 1 31 -2
22 -11z m-2244 -5 c-10 -2 -26 -2 -35 0 -10 3 -2 5 17 5 19 0 27 -2 18 -5z
m2317 -3 c3 -5 1 -10 -4 -10 -6 0 -11 5 -11 10 0 6 2 10 4 10 3 0 8 -4 11 -10z
m-2452 -27 c-7 -2 -19 -2 -25 0 -7 3 -2 5 12 5 14 0 19 -2 13 -5z m164 -16 c3
-4 -12 -7 -35 -7 -23 0 -42 4 -42 9 0 10 67 8 77 -2z m580 -9 c-3 -8 -6 -5 -6
6 -1 11 2 17 5 13 3 -3 4 -12 1 -19z m-702 2 c-3 -5 4 -11 17 -11 27 -2 -64
-17 -107 -18 -23 -1 -26 2 -15 9 8 5 27 10 43 10 15 0 27 5 27 10 0 6 9 10 21
10 11 0 17 -4 14 -10z m752 -12 c-3 -8 -6 -5 -6 6 -1 11 2 17 5 13 3 -3 4 -12
1 -19z m1695 0 c-7 -7 -12 -8 -12 -2 0 14 12 26 19 19 2 -3 -1 -11 -7 -17z
m-2205 6 c-3 -3 -12 -4 -19 -1 -8 3 -5 6 6 6 11 1 17 -2 13 -5z m476 -29 c-5
-25 -7 -26 -13 -10 -4 11 -2 25 4 31 15 16 15 14 9 -21z m-959 10 c-4 -8 -12
-15 -20 -15 -20 0 -17 18 4 23 9 3 18 5 19 6 1 0 0 -6 -3 -14z m931 -15 c3 -5
1 -10 -4 -10 -6 0 -11 5 -11 10 0 6 2 10 4 10 3 0 8 -4 11 -10z m1350 -10
c227 -32 393 -148 488 -343 68 -141 93 -282 84 -481 -8 -201 -52 -407 -129
-608 l-30 -79 34 -52 c44 -65 73 -126 64 -134 -3 -3 -6 1 -6 10 0 9 -5 19 -11
23 -9 5 -10 -1 -5 -22 5 -20 -3 -12 -28 30 -37 59 -47 87 -21 52 19 -25 30
-14 13 13 -7 12 -18 19 -25 17 -7 -3 -15 0 -19 6 -4 7 -3 8 4 4 7 -4 12 -1 12
6 -1 20 -26 49 -35 40 -5 -4 -5 1 -1 12 4 12 -3 35 -20 63 -22 39 -28 43 -42
31 -15 -11 -15 -11 -4 3 13 17 7 49 -9 49 -5 0 -9 4 -9 10 0 17 -66 96 -77 93
-16 -6 -63 44 -62 65 0 14 2 13 8 -3 10 -24 51 -62 51 -47 0 5 -18 32 -40 59
-22 26 -55 67 -72 91 -22 29 -37 40 -49 37 -17 -6 -34 19 -24 35 3 4 -61 75
-141 156 -80 82 -142 140 -138 129 4 -11 6 -41 6 -66 -2 -42 1 -48 23 -53 24
-6 36 -26 15 -26 -5 0 -10 5 -10 10 0 6 -8 10 -17 10 -12 0 -3 -12 27 -37 25
-21 66 -58 91 -83 26 -25 63 -60 83 -77 20 -18 35 -33 33 -33 -3 0 14 -18 36
-40 30 -31 42 -38 49 -28 7 10 9 10 5 -2 -5 -18 51 -92 64 -84 5 3 8 2 7 -3
-5 -15 80 -114 85 -101 3 8 6 5 6 -6 1 -10 31 -59 67 -108 76 -103 77 -78 -11
-258 -88 -181 -217 -390 -349 -565 -96 -128 -206 -255 -221 -255 -7 0 -15 -6
-18 -12 -5 -14 -6 -8 -7 101 -1 40 1 76 4 79 4 3 6 -31 6 -76 0 -50 4 -82 10
-82 7 0 8 19 5 53 -4 33 -3 47 3 39 11 -17 28 167 43 468 14 291 1 678 -32
970 -6 52 -11 132 -12 178 0 45 -5 82 -10 82 -4 0 -6 8 -2 19 3 10 -1 23 -9
30 -7 6 -20 47 -27 91 -7 43 -16 77 -21 74 -4 -3 -8 10 -9 28 -1 49 -7 79 -34
173 -14 47 -25 92 -25 100 0 8 -4 15 -10 15 -5 0 -10 -12 -10 -27 0 -18 -3
-24 -10 -17 -6 6 -6 20 2 40 9 25 7 42 -12 98 -16 48 -25 64 -31 55 -6 -10 -9
-8 -9 8 0 16 5 20 19 16 11 -3 50 3 86 12 132 33 246 41 360 25z m-2340 -20
c-10 -11 -21 -17 -24 -14 -3 3 3 12 13 20 28 20 32 17 11 -6z m790 11 c10 -18
-17 -23 -33 -7 -15 15 -15 16 5 16 12 0 24 -4 28 -9z m75 -1 c12 -8 9 -10 -12
-10 -16 0 -28 5 -28 10 0 13 20 13 40 0z m-815 -23 c17 -13 15 -14 -15 -21
-39 -7 -47 -3 -29 18 17 19 21 19 44 3z m865 3 c0 -5 -7 -7 -15 -4 -8 4 -15 8
-15 10 0 2 7 4 15 4 8 0 15 -4 15 -10z m-137 -17 c-7 -2 -19 -2 -25 0 -7 3 -2
5 12 5 14 0 19 -2 13 -5z m95 0 c-10 -2 -26 -2 -35 0 -10 3 -2 5 17 5 19 0 27
-2 18 -5z m2021 -6 c8 -11 6 -13 -12 -11 -12 1 -26 3 -32 3 -5 1 -3 6 5 11 20
13 26 12 39 -3z m-2672 -13 c-3 -3 -12 -4 -19 -1 -8 3 -5 6 6 6 11 1 17 -2 13
-5z m1636 -71 c15 -38 39 -105 55 -151 16 -45 32 -79 35 -75 11 11 8 73 -4 73
-5 0 -7 5 -3 11 12 19 24 -13 24 -64 0 -34 -3 -46 -12 -41 -8 5 -9 0 -4 -17 4
-13 14 -46 21 -74 l13 -50 1 43 c1 24 -4 52 -9 62 -6 11 -6 21 -1 24 5 3 14
-24 21 -61 8 -47 8 -68 0 -73 -6 -4 -8 -13 -5 -21 3 -8 9 -45 14 -84 8 -73 -1
-108 -26 -98 -11 4 -10 8 4 18 16 12 16 14 2 20 -10 4 -14 15 -11 34 6 40 -1
48 -98 126 -47 37 -87 71 -90 74 -18 22 -150 102 -159 97 -6 -4 -9 -1 -5 7 3
10 -5 18 -23 25 -16 5 -36 16 -44 25 -15 14 -73 47 -84 47 -3 0 -4 -4 -1 -9 6
-10 -24 -25 -32 -16 -3 3 -1 5 5 5 5 0 15 11 21 25 8 16 42 40 104 71 104 53
237 112 254 113 6 1 23 -29 37 -66z m-1883 32 c0 -19 -5 -25 -21 -25 -15 0
-19 4 -15 16 3 9 6 20 6 25 0 5 7 9 15 9 9 0 15 -9 15 -25z m1900 15 c1 9 6 5
15 -10 7 -14 12 -26 10 -28 -5 -6 -45 32 -45 43 0 5 5 3 10 -5 9 -13 10 -13
10 0z m-1220 -13 c0 -10 -10 -12 -32 -8 l-33 5 30 7 c17 4 31 7 33 8 1 0 2 -5
2 -12z m2295 -17 c12 -19 -12 -10 -31 11 -19 22 -19 22 3 10 12 -6 25 -16 28
-21z m-3031 -9 c6 -10 -20 -48 -28 -41 -7 8 5 50 15 50 4 0 10 -4 13 -9z m444
-8 c-10 -2 -28 -2 -40 0 -13 2 -5 4 17 4 22 1 32 -1 23 -4z m-105 -10 c-7 -2
-21 -2 -30 0 -10 3 -4 5 12 5 17 0 24 -2 18 -5z m215 0 c-10 -2 -26 -2 -35 0
-10 3 -2 5 17 5 19 0 27 -2 18 -5z m105 0 c-13 -2 -35 -2 -50 0 -16 2 -5 4 22
4 28 0 40 -2 28 -4z m170 -14 c-6 -6 -19 -9 -29 -6 -16 4 -15 5 4 6 12 0 22 6
22 13 0 6 3 8 7 5 4 -4 2 -12 -4 -18z m74 15 c-3 -3 -12 -4 -19 -1 -8 3 -5 6
6 6 11 1 17 -2 13 -5z m1083 -39 c5 -22 5 -34 -1 -28 -10 10 -25 81 -15 71 4
-3 12 -23 16 -43z m-1587 28 c-7 -2 -19 -2 -25 0 -7 3 -2 5 12 5 14 0 19 -2
13 -5z m2682 -18 c14 -14 25 -31 25 -37 0 -6 -1 -9 -2 -7 -2 2 -16 19 -32 37
-35 38 -28 43 9 7z m-2375 4 c69 -6 148 -17 175 -25 28 -8 61 -16 75 -18 21
-2 33 -17 13 -15 -10 1 -53 -133 -46 -144 2 -4 0 -14 -7 -21 -6 -8 -22 -72
-36 -142 -14 -71 -26 -129 -27 -131 -1 -1 -72 -73 -158 -161 -86 -87 -202
-214 -258 -283 -55 -68 -106 -129 -111 -136 -28 -34 -182 -267 -219 -330 -23
-40 -44 -73 -47 -73 -3 0 -13 18 -23 40 -10 22 -21 37 -24 33 -4 -3 -7 1 -7
10 0 9 -13 42 -30 74 -16 31 -30 63 -30 71 0 7 -5 10 -12 6 -6 -4 -8 -3 -4 4
6 10 2 24 -30 97 -25 59 -43 119 -38 127 3 4 0 8 -6 8 -6 0 -9 4 -6 8 3 5 -1
35 -9 68 -8 32 -17 103 -21 157 -4 53 -11 97 -16 97 -4 0 -7 19 -7 43 l2 42 7
-40 7 -40 2 46 c1 62 28 187 47 222 9 15 13 37 9 50 -5 16 -4 18 3 8 8 -11 15
-5 31 27 12 23 26 42 31 42 6 0 10 6 10 14 0 14 118 136 131 136 4 0 14 6 21
13 19 18 145 74 202 89 48 13 48 13 20 20 -20 5 -15 6 16 3 25 -3 70 -1 100 3
93 12 141 12 270 1z m193 -6 c-7 -2 -21 -2 -30 0 -10 3 -4 5 12 5 17 0 24 -2
18 -5z m479 -7 c10 -7 15 -16 11 -20 -4 -3 2 -6 13 -5 66 7 70 -10 9 -42 -37
-20 -46 -21 -57 -10 -11 11 -10 13 7 9 11 -3 26 1 32 7 7 7 18 15 25 18 7 2
10 8 5 12 -4 5 -13 3 -19 -3 -14 -14 -32 -16 -23 -3 3 6 -5 19 -17 30 -24 23
-13 28 14 7z m-1439 -9 c3 -7 -3 -13 -14 -14 -15 -1 -16 1 -6 12 15 18 14 18
20 2z m1412 -17 c3 -5 -1 -10 -9 -10 -8 0 -18 5 -21 10 -3 6 1 10 9 10 8 0 18
-4 21 -10z m-1211 -6 c13 -5 14 -9 5 -20 -6 -8 -16 -14 -21 -14 -6 0 -6 6 1
14 9 11 9 15 -1 19 -7 3 -10 6 -6 6 3 1 14 -2 22 -5z m63 0 c-3 -3 -12 -4 -19
-1 -8 3 -5 6 6 6 11 1 17 -2 13 -5z m922 -10 c2 -2 1 -7 -2 -11 -4 -3 -22 1
-40 10 l-32 17 35 -6 c19 -4 37 -8 39 -10z m44 9 c-7 -2 -19 -2 -25 0 -7 3 -2
5 12 5 14 0 19 -2 13 -5z m-38 -44 c153 -52 161 -53 187 -35 12 9 26 16 31 16
13 0 -72 -69 -154 -125 -40 -27 -117 -85 -171 -127 -54 -43 -102 -78 -107 -78
-5 0 -18 -8 -27 -17 -17 -17 -18 -17 -11 0 4 10 7 28 8 40 1 20 2 20 9 -3 l7
-25 12 28 c6 16 11 38 11 50 0 12 6 42 14 67 8 25 27 83 41 130 15 47 28 91
30 98 6 18 20 15 120 -19z m2014 -1 c5 -18 10 -27 10 -20 1 7 6 10 11 7 6 -4
8 -10 5 -15 -9 -14 14 -60 30 -60 8 0 15 -4 15 -10 0 -5 4 -10 10 -10 5 0 7 8
4 18 -5 14 -4 14 4 2 8 -10 8 -18 0 -27 -8 -10 -5 -20 12 -38 13 -14 21 -27
18 -30 -3 -4 -15 6 -27 21 l-21 27 0 -27 c0 -22 52 -129 90 -186 11 -16 55
-106 88 -180 11 -25 30 -76 42 -115 12 -38 28 -88 35 -110 8 -22 26 -103 41
-180 24 -125 27 -164 27 -365 0 -326 -26 -476 -136 -779 -43 -119 -146 -332
-164 -338 -6 -2 -12 37 -16 99 -8 136 -59 388 -79 388 -4 0 -8 9 -8 21 0 30
-53 185 -93 271 -19 40 -40 88 -47 106 -7 17 -16 32 -21 32 -5 0 -9 9 -9 19 0
11 -4 22 -9 26 -6 3 12 49 38 103 102 205 183 443 216 637 21 120 24 344 5
430 -16 72 -18 144 -6 148 17 6 -3 37 -24 37 -11 0 -20 6 -20 13 0 6 -11 34
-25 61 -28 56 -28 56 -15 56 5 0 14 -15 19 -32z m-1974 12 c3 -6 -1 -7 -9 -4
-18 7 -21 14 -7 14 6 0 13 -4 16 -10z m55 -9 c0 -5 -9 -7 -20 -4 -11 3 -20 7
-20 9 0 2 9 4 20 4 11 0 20 -4 20 -9z m-1342 -34 c-7 -14 -13 -17 -16 -9 -6
19 6 44 18 37 7 -4 6 -14 -2 -28z m96 -3 c9 -3 16 -11 16 -16 0 -6 -7 -5 -16
3 -13 10 -17 10 -25 -2 -5 -8 -9 -9 -9 -3 0 10 9 24 16 24 1 0 9 -3 18 -6z
m76 2 c0 -2 -8 -10 -18 -19 -16 -15 -18 -15 -18 1 0 10 8 19 18 19 10 1 18 0
18 -1z m1410 -23 c0 -5 -15 -16 -33 -27 l-32 -18 70 -35 c39 -19 72 -38 73
-44 2 -5 10 -9 18 -9 15 0 93 -41 169 -88 67 -42 207 -134 219 -143 6 -5 29
-23 51 -39 22 -16 45 -34 52 -40 7 -6 23 -15 37 -21 14 -7 28 -19 31 -28 18
-47 55 -423 62 -635 6 -183 6 -189 -13 -183 -299 94 -497 123 -783 114 -189
-6 -340 -28 -494 -73 -49 -14 -90 -24 -91 -22 -12 13 20 418 58 753 7 60 24
85 120 178 122 120 336 294 385 314 20 9 46 24 60 34 25 20 41 24 41 12z
m-1685 -40 c-3 -56 -3 -56 -31 -88 -25 -29 -26 -29 -40 -11 -18 25 -18 47 0
24 16 -21 26 -23 26 -5 0 7 9 23 20 35 24 26 28 51 5 32 -20 -17 -19 -4 3 25
9 14 17 25 18 25 1 0 0 -17 -1 -37z m163 4 c8 -10 6 -13 -9 -14 -19 -2 -25 8
-12 20 8 9 9 9 21 -6z m1534 -17 c6 0 9 -2 6 -5 -12 -12 -37 7 -30 23 6 16 7
15 10 0 2 -10 8 -18 14 -18z m-529 7 c3 -8 1 -20 -4 -28 -6 -10 -9 -7 -9 14 0
29 5 35 13 14z m727 3 c-19 -13 -30 -13 -30 0 0 6 10 10 23 10 18 0 19 -2 7
-10z m-1848 -50 c-5 -48 -22 -43 -22 6 0 21 5 34 13 34 9 0 11 -12 9 -40z
m1798 19 c0 -11 -4 -17 -10 -14 -5 3 -10 13 -10 21 0 8 5 14 10 14 6 0 10 -9
10 -21z m120 -1 c0 -6 -6 -5 -15 2 -8 7 -15 14 -15 16 0 2 7 1 15 -2 8 -4 15
-11 15 -16z m1524 -4 c9 -24 2 -26 -12 -4 -7 11 -8 20 -3 20 5 0 12 -7 15 -16z
m-1534 -30 c0 -3 -7 -1 -15 6 -8 7 -15 17 -15 22 0 5 7 3 15 -6 8 -8 15 -18
15 -22z m41 9 c13 -16 12 -17 -3 -4 -10 7 -18 15 -18 17 0 8 8 3 21 -13z
m-844 -15 c-3 -8 -6 -5 -6 6 -1 11 2 17 5 13 3 -3 4 -12 1 -19z m-1137 -33 c0
-5 -5 -3 -10 5 -5 8 -10 20 -10 25 0 6 5 3 10 -5 5 -8 10 -19 10 -25z m3500
21 c0 -3 -4 -8 -10 -11 -5 -3 -10 -1 -10 4 0 6 5 11 10 11 6 0 10 -2 10 -4z
m-3396 -21 c-4 -8 -11 -15 -16 -15 -6 0 -5 6 2 15 7 8 14 15 16 15 2 0 1 -7
-2 -15z m1774 1 c-7 -8 -17 -12 -22 -9 -4 3 -2 9 5 14 22 13 31 11 17 -5z
m-1999 -36 c-6 -16 -15 -30 -20 -30 -5 0 -3 14 6 30 9 17 17 30 20 30 2 0 -1
-13 -6 -30z m3601 5 c12 -30 40 -33 40 -4 0 11 -4 17 -10 14 -5 -3 -10 -1 -10
4 0 16 16 13 31 -5 11 -14 10 -19 -10 -35 -21 -17 -53 -28 -38 -12 4 3 3 11
-2 17 -11 15 -22 46 -15 46 2 0 9 -11 14 -25z m-1573 9 c-3 -3 -12 -4 -19 -1
-8 3 -5 6 6 6 11 1 17 -2 13 -5z m-793 -40 c3 -8 2 -12 -4 -9 -6 3 -10 10 -10
16 0 14 7 11 14 -7z m-1124 -20 c0 -13 3 -14 14 -5 10 9 16 9 21 1 4 -7 -2
-14 -14 -17 -22 -6 -29 -29 -10 -35 6 -2 9 -15 7 -28 l-5 -25 -10 25 c-22 52
-28 -187 -8 -305 1 -5 3 -26 5 -45 l3 -35 7 35 c6 28 8 22 9 -36 1 -68 50
-266 72 -288 5 -6 9 -17 9 -25 0 -25 81 -211 92 -211 5 0 7 -4 4 -9 -3 -4 9
-38 27 -75 l33 -66 -48 -96 c-98 -194 -180 -436 -214 -634 -22 -124 -22 -349
0 -450 9 -41 16 -77 16 -79 0 -4 -30 31 -47 55 -17 23 -40 64 -93 169 -44 89
-59 110 -75 108 -17 -2 -17 -1 -2 3 21 6 22 2 -21 124 -40 113 -79 277 -89
370 -7 69 -8 72 -14 35 -4 -22 -5 79 -3 225 2 207 7 291 23 385 29 174 56 296
64 289 4 -4 7 2 7 12 0 22 70 202 124 318 19 41 31 78 28 82 -4 4 -1 4 6 0 14
-8 32 31 28 60 -2 11 -1 13 1 6 4 -10 8 -10 19 -1 10 8 14 35 14 95 0 49 4 84
10 84 6 0 10 -7 10 -16z m2069 7 c19 -12 5 -31 -22 -30 -17 1 -18 2 -4 6 20 5
22 19 5 26 -7 3 -8 6 -3 6 6 0 16 -3 24 -8z m106 -31 c3 -5 1 -10 -4 -10 -6 0
-11 5 -11 10 0 6 2 10 4 10 3 0 8 -4 11 -10z m40 -30 c3 -5 -1 -10 -9 -10 -9
0 -16 5 -16 10 0 6 4 10 9 10 6 0 13 -4 16 -10z m-35 -4 c0 -2 -7 -7 -16 -10
-8 -3 -12 -2 -9 4 6 10 25 14 25 6z m1385 -6 c-3 -5 -12 -10 -18 -10 -7 0 -6
4 3 10 19 12 23 12 15 0z m-3727 -55 c0 -16 -2 -15 -8 5 -11 34 -11 60 0 35 5
-11 8 -29 8 -40z m3762 51 c0 -3 -4 -8 -10 -11 -5 -3 -10 -1 -10 4 0 6 5 11
10 11 6 0 10 -2 10 -4z m-3803 -38 c-3 -8 -6 -5 -6 6 -1 11 2 17 5 13 3 -3 4
-12 1 -19z m3831 -13 c17 -20 19 -25 7 -25 -9 0 -18 7 -21 15 -4 8 -10 12 -15
9 -5 -3 -9 2 -9 10 0 23 13 20 38 -9z m-3594 -10 c3 -8 1 -15 -4 -15 -6 0 -10
7 -10 15 0 8 2 15 4 15 2 0 6 -7 10 -15z m-27 -42 c-3 -10 -5 -4 -5 12 0 17 2
24 5 18 2 -7 2 -21 0 -30z m-80 -20 c-3 -10 -5 -2 -5 17 0 19 2 27 5 18 2 -10
2 -26 0 -35z m2316 32 c-3 -9 -8 -14 -10 -11 -3 3 -2 9 2 15 9 16 15 13 8 -4z
m117 -7 c0 -6 -6 -5 -15 2 -8 7 -15 14 -15 16 0 2 7 1 15 -2 8 -4 15 -11 15
-16z m-10 -34 c0 -3 -7 -1 -15 6 -8 7 -15 17 -15 22 0 5 7 3 15 -6 8 -8 15
-18 15 -22z m-26 -19 c-4 -8 -10 -12 -15 -9 -14 8 -10 24 6 24 9 0 12 -6 9
-15z m46 -10 c0 -2 -9 -3 -19 -2 -11 0 -18 5 -15 9 4 6 34 0 34 -7z m1300 -5
c0 -5 -4 -10 -10 -10 -5 0 -10 5 -10 10 0 6 5 10 10 10 6 0 10 -4 10 -10z
m-3936 -61 c-11 -18 -19 -8 -21 28 l-2 36 15 -27 c7 -16 11 -32 8 -37z m26 40
c0 -6 -4 -7 -10 -4 -5 3 -10 11 -10 16 0 6 5 7 10 4 6 -3 10 -11 10 -16z m95
-76 c-5 -12 -10 -21 -11 -20 -1 1 1 29 4 62 6 58 7 58 12 20 3 -22 1 -50 -5
-62z m3795 66 c0 -6 -4 -7 -10 -4 -5 3 -10 11 -10 16 0 6 5 7 10 4 6 -3 10
-11 10 -16z m40 -1 c0 -16 -3 -19 -11 -11 -6 6 -8 16 -5 22 11 17 16 13 16
-11z m-1219 -5 c3 1 2 -2 -2 -6 -7 -10 -39 2 -39 14 0 6 8 6 19 0 10 -6 20 -9
22 -8z m1213 -42 c-2 -2 1 -12 6 -22 7 -12 7 -20 0 -24 -6 -4 -13 7 -16 24 -4
17 -10 28 -15 25 -5 -3 -6 2 -3 10 5 12 9 13 19 3 7 -7 11 -14 9 -16z m-2648
-18 c-11 -53 -36 -320 -46 -498 -10 -159 -7 -616 5 -745 34 -376 52 -531 70
-595 8 -27 21 -90 30 -140 8 -49 26 -130 41 -180 14 -49 34 -119 44 -155 27
-97 50 -149 64 -144 7 3 12 -4 12 -16 0 -22 -12 -27 -18 -8 -3 8 -21 7 -70 -5
-100 -25 -254 -40 -347 -33 -295 22 -500 198 -582 501 -59 221 -24 580 87 892
20 54 36 106 37 115 1 17 17 15 17 -2 0 -10 97 -161 108 -170 4 -3 20 -24 35
-48 16 -25 32 -40 39 -36 7 4 8 3 4 -4 -7 -11 13 -38 109 -153 16 -20 38 -46
48 -58 10 -12 22 -19 28 -16 5 4 17 1 25 -6 12 -9 12 -14 2 -20 -16 -10 20
-52 39 -45 7 3 15 1 18 -4 4 -6 1 -10 -5 -10 -6 0 4 -18 22 -40 18 -22 38 -38
45 -35 7 2 10 -2 6 -11 -5 -14 6 -18 37 -15 13 2 13 1 0 -8 -13 -10 -8 -15 12
-12 4 0 5 -5 2 -13 -3 -7 7 -21 23 -31 15 -10 32 -24 36 -32 11 -18 27 -17 27
2 0 8 -3 15 -7 15 -5 0 -9 25 -10 55 -1 48 -5 58 -33 82 -18 15 -37 32 -44 38
-6 6 -16 10 -23 8 -6 -2 -15 1 -19 8 -5 8 -3 10 7 4 8 -4 -12 19 -45 53 -34
35 -64 58 -72 55 -8 -3 -14 1 -14 10 0 9 -6 20 -14 24 -8 4 -15 12 -15 18 0 5
-4 11 -10 13 -6 2 -11 -1 -11 -7 0 -6 -7 -11 -15 -11 -8 0 -15 -5 -15 -11 0
-5 -5 -7 -11 -3 -8 4 -2 12 15 21 14 7 26 17 26 22 0 14 -37 42 -59 44 -11 1
-21 5 -21 10 0 4 -5 5 -12 1 -7 -5 -8 -3 -3 6 4 7 2 16 -5 20 -7 5 -14 17 -15
27 -1 24 -53 93 -70 93 -6 0 -12 6 -12 14 0 25 -47 75 -73 77 -17 1 -20 3 -8
6 15 4 12 13 -23 64 -30 44 -38 65 -33 82 22 72 258 499 316 572 4 6 45 60 90
120 97 131 218 275 231 275 5 0 6 -12 3 -27z m21 -20 c-3 -10 -5 -2 -5 17 0
19 2 27 5 18 2 -10 2 -26 0 -35z m1427 12 c-4 -8 -10 -15 -15 -15 -4 0 -6 7
-3 15 4 8 10 15 15 15 4 0 6 -7 3 -15z m-117 -27 c-3 -7 -5 -2 -5 12 0 14 2
19 5 13 2 -7 2 -19 0 -25z m167 11 c-6 -11 -24 -2 -24 11 0 5 7 7 15 4 8 -4
12 -10 9 -15z m1196 -15 c0 -8 -4 -14 -10 -14 -5 0 -10 9 -10 21 0 11 5 17 10
14 6 -3 10 -13 10 -21z m-1165 -16 c4 -3 -10 -6 -29 -5 -20 1 -36 4 -36 8 0 8
57 6 65 -3z m-2788 -35 c-3 -10 -5 -4 -5 12 0 17 2 24 5 18 2 -7 2 -21 0 -30z
m33 25 c0 -9 4 -8 10 2 8 13 10 13 10 -2 0 -23 -20 -34 -31 -17 -12 19 -11 29
1 29 6 0 10 -6 10 -12z m2567 -20 c-3 -7 -5 -2 -5 12 0 14 2 19 5 13 2 -7 2
-19 0 -25z m163 12 c0 -5 -4 -10 -10 -10 -5 0 -10 5 -10 10 0 6 5 10 10 10 6
0 10 -4 10 -10z m-2863 -32 c-3 -8 -6 -5 -6 6 -1 11 2 17 5 13 3 -3 4 -12 1
-19z m2917 11 c-6 -11 -44 -12 -44 -1 0 4 11 8 25 8 14 1 22 -2 19 -7z m1177
-48 c-11 -25 -10 -33 5 -55 17 -27 14 -44 -5 -31 -6 3 -9 11 -5 16 3 5 0 16
-6 24 -10 12 -10 21 0 44 6 17 9 36 4 43 -5 10 -4 10 6 1 10 -10 10 -18 1 -42z
m-4131 -6 c-16 -47 -23 -40 -8 8 6 20 13 35 16 33 2 -3 -1 -21 -8 -41z m170
30 c0 -1 -10 -22 -23 -48 l-22 -47 0 40 c0 23 1 37 3 31 2 -6 8 -9 12 -6 5 3
7 11 4 19 -3 7 2 13 11 13 8 0 15 -1 15 -2z m-156 -77 c-14 -20 -15 -20 -9 -3
4 11 10 31 13 45 6 24 7 24 10 3 2 -13 -4 -33 -14 -45z m2733 40 c-3 -8 -6 -5
-6 6 -1 11 2 17 5 13 3 -3 4 -12 1 -19z m1355 10 c-7 -7 -12 -20 -12 -30 0
-10 -5 -18 -11 -18 -6 0 -8 7 -5 16 3 9 6 22 6 30 0 8 8 14 17 14 13 0 14 -3
5 -12z m-1071 -70 c-9 -9 -12 -9 -7 -1 3 6 2 14 -4 18 -5 3 -10 11 -10 18 0 6
7 4 17 -6 14 -14 15 -19 4 -29z m29 -14 c0 -8 -5 -12 -10 -9 -6 4 -8 11 -5 16
9 14 15 11 15 -7z m-3064 -51 c-6 -14 -9 -15 -16 -4 -11 19 -1 46 13 32 5 -5
7 -18 3 -28z m4158 21 c4 -9 4 -19 1 -22 -7 -8 -35 19 -29 29 8 14 21 11 28
-7z m-2767 -26 c-3 -8 -6 -5 -6 6 -1 11 2 17 5 13 3 -3 4 -12 1 -19z m2722
-28 c0 -10 -3 -8 -9 5 -12 27 -12 43 0 25 5 -8 9 -22 9 -30z m-4162 -17 c-3
-10 -5 -4 -5 12 0 17 2 24 5 18 2 -7 2 -21 0 -30z m113 28 c0 -5 7 -17 16 -26
9 -9 13 -19 9 -23 -4 -4 -10 -1 -12 6 -7 18 -21 15 -26 -5 -2 -10 -4 -1 -3 19
1 21 4 38 9 38 4 0 7 -4 7 -9z m30 5 c0 -3 -4 -8 -10 -11 -5 -3 -10 -1 -10 4
0 6 5 11 10 11 6 0 10 -2 10 -4z m3060 -14 c0 -13 -12 -22 -22 -16 -10 6 -1
24 13 24 5 0 9 -4 9 -8z m-3087 -72 c-3 -12 -8 -19 -11 -16 -5 6 5 36 12 36 2
0 2 -9 -1 -20z m-107 -24 c3 -19 2 -42 -4 -51 -7 -14 -9 -12 -8 11 0 16 -3 39
-7 52 -5 13 -4 22 2 22 5 0 13 -15 17 -34z m3278 -1 c-4 -8 -11 -12 -16 -9 -6
4 -5 10 3 15 19 12 19 11 13 -6z m-3172 -39 c7 5 8 2 3 -5 -4 -7 -11 -25 -15
-39 -5 -20 -7 -13 -7 28 1 30 3 45 5 32 2 -13 8 -19 14 -16z m2705 2 c-3 -7
-5 -2 -5 12 0 14 2 19 5 13 2 -7 2 -19 0 -25z m497 0 c6 -4 1 -6 -10 -6 -16 2
-20 7 -16 22 4 15 7 17 10 6 3 -8 10 -18 16 -22z m945 -22 c-9 -8 -10 -7 -5 7
3 10 7 24 7 30 1 7 3 4 6 -7 3 -10 -1 -23 -8 -30z m-2842 -78 c-2 -18 -4 -4
-4 32 0 36 2 50 4 33 2 -18 2 -48 0 -65z m2793 67 c0 -8 -4 -15 -10 -15 -5 0
-10 7 -10 15 0 8 5 15 10 15 6 0 10 -7 10 -15z m-4203 -47 c-3 -7 -5 -2 -5 12
0 14 2 19 5 13 2 -7 2 -19 0 -25z m-20 0 c-3 -8 -6 -5 -6 6 -1 11 2 17 5 13 3
-3 4 -12 1 -19z m2841 -275 c-1 -215 -3 -272 -8 -203 -7 87 -1 500 7 500 1 0
2 -134 1 -297z m1461 237 c-1 -23 -2 -23 -9 5 -6 22 -8 13 -8 -38 0 -72 -11
-107 -13 -41 -2 48 0 72 7 103 4 20 7 22 15 10 5 -7 8 -25 8 -39z m8 -112 c-2
-13 -4 -3 -4 22 0 25 2 35 4 23 2 -13 2 -33 0 -45z m-4280 -70 c-2 -13 -4 -5
-4 17 -1 22 1 32 4 23 2 -10 2 -28 0 -40z m25 22 c-2 -16 -6 -30 -8 -30 -2 0
-4 14 -4 30 0 17 4 30 8 30 5 0 7 -13 4 -30z m4235 -2 c-3 -7 -5 -2 -5 12 0
14 2 19 5 13 2 -7 2 -19 0 -25z m-4220 -100 c-2 -18 -4 -4 -4 32 0 36 2 50 4
33 2 -18 2 -48 0 -65z m4234 67 c7 18 8 17 8 -7 1 -15 -3 -30 -9 -33 -5 -3
-10 -3 -10 2 0 4 -2 17 -4 28 -2 11 -1 13 2 5 4 -12 6 -11 13 5z m-3623 -30
c-3 -3 -9 2 -12 12 -6 14 -5 15 5 6 7 -7 10 -15 7 -18z m-631 -52 c-2 -16 -4
-5 -4 22 0 28 2 40 4 28 2 -13 2 -35 0 -50z m1380 -55 c-2 -24 -4 -5 -4 42 0
47 2 66 4 43 2 -24 2 -62 0 -85z m-722 82 c-3 -11 -2 -20 2 -20 5 0 14 -12 21
-27 9 -22 11 -23 8 -5 -6 30 0 28 18 -10 12 -23 13 -34 5 -39 -7 -4 -8 -13 -4
-20 6 -10 5 -11 -3 -4 -5 6 -22 31 -36 57 -27 49 -34 88 -15 88 6 0 8 -9 4
-20z m3562 -12 c-3 -8 -6 -5 -6 6 -1 11 2 17 5 13 3 -3 4 -12 1 -19z m40 -45
c-3 -10 -5 -2 -5 17 0 19 2 27 5 18 2 -10 2 -26 0 -35z m-723 2 c-7 -17 39
-107 68 -136 13 -12 17 -19 11 -15 -18 10 -17 5 21 -76 19 -40 41 -95 49 -123
24 -77 64 -238 66 -260 0 -11 4 -73 7 -138 5 -82 3 -137 -7 -180 -7 -34 -12
-70 -12 -79 1 -10 -2 -18 -8 -18 -5 0 -9 -8 -9 -18 0 -23 -55 -138 -70 -147
-6 -4 -8 -16 -5 -28 2 -12 2 -16 -1 -9 -4 9 -12 6 -28 -11 -13 -14 -26 -32
-29 -41 -4 -9 -11 -16 -17 -16 -6 0 -8 -5 -4 -12 4 -7 3 -8 -5 -4 -6 4 -17 1
-25 -6 -101 -96 -325 -168 -522 -168 -47 0 -128 5 -180 11 -106 11 -136 6 -52
-9 29 -5 41 -10 26 -11 -14 0 -35 -4 -45 -7 -15 -5 -16 -4 -3 6 12 9 6 10 -28
6 -29 -4 -41 -3 -37 4 3 5 0 10 -7 11 -7 1 -2 4 12 8 20 6 9 11 -52 21 -43 7
-78 16 -78 20 0 4 11 5 24 3 22 -5 25 1 45 79 12 45 28 103 36 128 7 25 19 81
25 125 16 102 30 130 93 185 47 41 248 250 312 325 142 165 417 568 408 597
-2 4 4 5 11 2 8 -3 12 -12 10 -19z m683 -22 c-3 -10 -5 -4 -5 12 0 17 2 24 5
18 2 -7 2 -21 0 -30z m-4217 -10 c0 -22 -2 -23 -15 -9 -8 8 -15 19 -15 24 0 5
7 9 15 9 9 0 15 -10 15 -24z m17 -20 c-3 -10 -5 -2 -5 17 0 19 2 27 5 18 2
-10 2 -26 0 -35z m4214 -58 c-7 -72 -8 -79 -9 -35 -2 52 7 134 14 128 1 -2 -1
-44 -5 -93z m-61 70 c0 -8 -4 -15 -10 -15 -5 0 -10 7 -10 15 0 8 5 15 10 15 6
0 10 -7 10 -15z m80 -115 l-11 -25 6 25 c2 14 6 45 7 70 l2 45 3 -45 c2 -25
-1 -57 -7 -70z m-3505 72 c1 -12 -4 -22 -11 -22 -6 0 -11 11 -10 25 1 30 19
28 21 -3z m-768 -44 c-2 -13 -4 -3 -4 22 0 25 2 35 4 23 2 -13 2 -33 0 -45z
m1411 -68 c0 -33 -1 -32 -9 10 -4 25 -7 59 -7 75 0 26 1 25 9 -10 4 -22 8 -56
7 -75z m-1371 -2 c-2 -18 -4 -6 -4 27 0 33 2 48 4 33 2 -15 2 -42 0 -60z
m4110 40 c-3 -8 -6 -5 -6 6 -1 11 2 17 5 13 3 -3 4 -12 1 -19z m-4128 -45 c-1
-44 -3 -52 -9 -33 -7 20 -8 16 -10 -25 -2 -47 -3 -48 -10 -17 -4 18 -5 54 -2
80 5 40 7 43 13 22 l7 -25 1 28 c2 53 11 26 10 -30z m781 47 c0 -5 -2 -10 -4
-10 -3 0 -8 5 -11 10 -3 6 -1 10 4 10 6 0 11 -4 11 -10z m3458 -136 c-11 -60
-13 -65 -19 -39 -4 17 -6 48 -6 70 l0 40 7 -45 7 -45 1 41 c2 38 10 59 19 50
2 -2 -2 -35 -9 -72z m-4305 29 c-8 -52 -13 -54 -13 -5 0 23 4 42 9 42 6 0 7
-17 4 -37z m4194 0 c-3 -10 -5 -4 -5 12 0 17 2 24 5 18 2 -7 2 -21 0 -30z
m-3283 11 c3 -8 2 -12 -4 -9 -6 3 -10 10 -10 16 0 14 7 11 14 -7z m-897 -56
c-3 -7 -5 -2 -5 12 0 14 2 19 5 13 2 -7 2 -19 0 -25z m73 12 c0 -5 -5 -10 -11
-10 -5 0 -7 5 -4 10 3 6 8 10 11 10 2 0 4 -4 4 -10z m1370 -1 c0 8 2 12 4 10
3 -2 1 -20 -4 -39 -5 -22 -8 -27 -9 -13 -1 12 -4 30 -7 40 -5 15 -4 15 5 3 9
-12 11 -13 11 -1z m1382 -49 c2 -22 0 -40 -4 -40 -5 0 -8 18 -8 40 0 22 2 40
4 40 2 0 6 -18 8 -40z m-2815 -27 c-3 -10 -5 -4 -5 12 0 17 2 24 5 18 2 -7 2
-21 0 -30z m4170 5 c-3 -7 -5 -2 -5 12 0 14 2 19 5 13 2 -7 2 -19 0 -25z m-27
-9 c0 -5 -4 -9 -10 -9 -5 0 -10 7 -10 16 0 8 5 12 10 9 6 -3 10 -10 10 -16z
m-1335 -89 c-4 -34 -9 -59 -12 -57 -2 3 -1 33 3 66 4 34 9 60 11 57 3 -3 2
-32 -2 -66z m-2808 28 c-3 -8 -6 -5 -6 6 -1 11 2 17 5 13 3 -3 4 -12 1 -19z
m1017 6 c9 -24 2 -26 -12 -4 -7 11 -8 20 -3 20 5 0 12 -7 15 -16z m439 -101
c5 -7 4 -13 -2 -13 -5 0 -12 -8 -14 -17 -3 -10 -5 16 -5 57 1 63 2 68 7 30 4
-25 10 -51 14 -57z m-368 26 c11 -17 -1 -21 -15 -4 -8 9 -8 15 -2 15 6 0 14
-5 17 -11z m3005 -54 c0 -5 -4 -4 -9 4 -7 11 -12 6 -19 -20 -6 -19 -11 -26
-11 -17 -1 9 4 29 11 43 8 18 14 22 20 13 4 -7 8 -17 8 -23z m-4020 -22 c0
-24 -25 -9 -28 17 -3 21 -2 22 12 11 9 -7 16 -20 16 -28z m42 10 c4 -69 -5
-116 -25 -136 -14 -14 -19 -16 -14 -4 3 8 8 33 12 54 4 28 3 33 -4 18 -8 -17
-10 -18 -10 -2 -1 9 -7 17 -13 18 -7 0 -4 4 7 8 12 5 26 4 34 -3 12 -9 13 -7
8 14 -4 14 -7 32 -8 40 0 10 -3 8 -9 -5 -6 -15 -9 -16 -9 -4 -1 9 2 19 6 22
13 14 23 6 25 -20z m3969 -40 c-8 -15 -10 -15 -11 -2 0 17 10 32 18 25 2 -3
-1 -13 -7 -23z m-2614 -50 c-3 -10 -5 -4 -5 12 0 17 2 24 5 18 2 -7 2 -21 0
-30z m-197 -14 c0 -6 -4 -7 -10 -4 -5 3 -10 11 -10 16 0 6 5 7 10 4 6 -3 10
-11 10 -16z m-1134 -26 c-10 -10 -19 5 -10 18 6 11 8 11 12 0 2 -7 1 -15 -2
-18z m1347 -78 c4 -31 3 -41 -2 -25 -13 42 -22 107 -12 90 4 -8 11 -37 14 -65z
m2339 35 c2 -22 0 -40 -4 -40 -5 0 -8 18 -8 40 0 22 2 40 4 40 2 0 6 -18 8
-40z m-2442 -27 c0 -7 -6 -13 -14 -13 -9 0 -12 7 -9 20 3 11 0 20 -6 20 -6 0
-11 5 -11 12 0 6 9 3 20 -7 11 -10 20 -24 20 -32z m2605 -3 c-9 -10 -17 -35
-18 -54 -1 -21 -4 -31 -9 -23 -9 14 -1 51 20 92 9 18 17 25 20 17 2 -7 -4 -22
-13 -32z m-2655 10 c0 -5 -5 -10 -11 -10 -5 0 -7 5 -4 10 3 6 8 10 11 10 2 0
4 -4 4 -10z m2789 -74 c-1 -34 -3 -30 -18 29 -9 36 -9 38 4 21 8 -11 15 -34
14 -50z m-3979 33 c0 -11 -4 -17 -10 -14 -5 3 -10 13 -10 21 0 8 5 14 10 14 6
0 10 -9 10 -21z m29 -15 c8 -27 7 -44 -4 -68 -7 -17 -14 -25 -14 -17 -1 8 -9
23 -18 34 -10 11 -12 17 -5 13 7 -4 12 -1 12 9 0 9 5 13 10 10 6 -4 8 -16 5
-28 -5 -19 -4 -19 5 -5 7 11 7 25 0 43 -11 28 -13 45 -5 45 2 0 9 -16 14 -36z
m18 -6 c-3 -7 -5 -2 -5 12 0 14 2 19 5 13 2 -7 2 -19 0 -25z m3906 -5 c5 -25
3 -33 -8 -33 -16 0 -20 26 -9 55 8 20 10 18 17 -22z m-260 -108 c-1 -35 1 -44
7 -30 6 13 9 -6 9 -57 1 -46 -3 -78 -9 -78 -5 0 -10 -18 -10 -40 0 -22 -4 -40
-10 -40 -12 0 -13 72 -1 85 14 16 22 105 10 105 -7 0 -9 18 -4 53 4 37 3 48
-4 37 -8 -11 -10 1 -10 45 l1 60 11 -45 c6 -25 10 -67 10 -95z m-1076 103 c-3
-8 -6 -5 -6 6 -1 11 2 17 5 13 3 -3 4 -12 1 -19z m1240 -10 c-3 -7 -5 -2 -5
12 0 14 2 19 5 13 2 -7 2 -19 0 -25z m-66 -39 c-8 -38 -9 -40 -10 -12 -1 17 2
39 5 48 11 29 14 10 5 -36z m-3744 -46 c-3 -10 -5 -4 -5 12 0 17 2 24 5 18 2
-7 2 -21 0 -30z m53 2 c5 -14 12 -38 15 -53 4 -23 4 -24 -4 -7 -9 18 -10 17
-10 -7 -1 -15 5 -33 12 -39 7 -7 11 -25 9 -41 -4 -28 12 -40 21 -15 2 6 3 4 1
-7 -3 -18 3 -27 38 -66 9 -10 14 -21 10 -24 -3 -3 5 -6 18 -6 27 0 22 -9 -7
-14 -16 -3 -25 6 -42 39 -12 23 -28 48 -36 55 -8 7 -15 23 -15 36 0 13 -3 23
-7 23 -17 -3 -24 2 -17 12 9 16 11 97 2 112 -5 8 -8 7 -8 -5 0 -10 -4 -18 -10
-18 -11 0 -13 11 -4 34 9 23 23 19 34 -9z m3690 -34 c0 -11 -6 -9 -20 7 -11
12 -20 26 -20 31 0 6 9 3 20 -6 11 -10 20 -24 20 -32z m-2430 4 c0 -5 -5 -3
-10 5 -5 8 -10 20 -10 25 0 6 5 3 10 -5 5 -8 10 -19 10 -25z m2540 5 c0 -5 -4
-10 -10 -10 -5 0 -10 5 -10 10 0 6 5 10 10 10 6 0 10 -4 10 -10z m-2523 -32
c-3 -8 -6 -5 -6 6 -1 11 2 17 5 13 3 -3 4 -12 1 -19z m2280 0 c-3 -8 -6 -5 -6
6 -1 11 2 17 5 13 3 -3 4 -12 1 -19z m246 -3 c-3 -9 -8 -14 -10 -11 -3 3 -2 9
2 15 9 16 15 13 8 -4z m-2518 -37 c-4 -15 -3 -18 3 -10 6 9 36 -10 114 -72
124 -97 300 -221 375 -262 29 -16 53 -32 53 -36 0 -14 -355 -178 -363 -167 -7
10 -57 129 -73 177 -10 28 -22 52 -27 52 -4 0 -5 5 -1 11 3 6 2 21 -4 32 -13
30 -38 120 -52 190 -7 37 -16 57 -26 57 -8 0 -14 10 -14 25 0 14 5 25 11 25 6
0 8 -9 4 -22z m-1236 3 c7 -5 9 -11 5 -14 -5 -3 -15 1 -22 9 -14 16 -5 18 17
5z m2451 -11 c0 -5 -6 -7 -14 -4 -15 6 -24 -18 -47 -125 -7 -31 -16 -60 -21
-66 -4 -5 -8 -16 -8 -25 0 -13 1 -13 10 0 5 8 10 11 10 6 0 -5 -6 -17 -14 -25
-7 -9 -21 -41 -31 -71 -23 -71 -31 -81 -58 -70 -12 5 -56 19 -97 31 -86 24
-90 26 -110 38 -8 5 -24 13 -35 16 -19 7 -18 8 9 28 16 12 102 76 190 142 89
66 170 125 181 131 21 11 35 9 35 -6z m-2400 -100 c0 -5 -4 -10 -10 -10 -5 0
-10 5 -10 10 0 6 5 10 10 10 6 0 10 -4 10 -10z m3423 -20 c3 -11 1 -18 -4 -14
-5 3 -9 12 -9 20 0 20 7 17 13 -6z m-1053 -7 c0 -22 -17 -50 -24 -42 -5 5 15
59 22 59 1 0 2 -8 2 -17z m1231 -6 c-10 -9 -11 -8 -5 6 3 10 9 15 12 12 3 -3
0 -11 -7 -18z m-2385 -50 c6 -17 15 -41 20 -52 7 -18 6 -18 -7 -5 -9 8 -19 27
-22 42 -4 14 -10 34 -14 45 -3 10 -2 15 2 10 5 -4 14 -22 21 -40z m2316 -20
c2 -21 0 -36 -6 -34 -10 3 -16 54 -7 76 6 18 8 9 13 -42z m38 46 c0 -5 -5 -15
-10 -23 -8 -12 -10 -11 -10 8 0 12 5 22 10 22 6 0 10 -3 10 -7z m-1223 -45
c-3 -8 -6 -5 -6 6 -1 11 2 17 5 13 3 -3 4 -12 1 -19z m-2267 -54 c-5 -19 -12
-39 -16 -42 -4 -4 -4 1 -1 11 4 10 7 30 7 43 0 13 4 24 9 24 5 0 5 -15 1 -36z
m3383 29 c-7 -2 -19 -2 -25 0 -7 3 -2 5 12 5 14 0 19 -2 13 -5z m-3403 -29 c0
-8 -5 -12 -10 -9 -6 4 -8 11 -5 16 9 14 15 11 15 -7z m79 -104 c0 -8 -6 -1
-12 16 -7 17 -17 29 -24 27 -17 -6 -24 13 -17 44 7 28 8 27 31 -22 12 -27 22
-57 22 -65z m2183 48 c-6 -6 -12 -5 -17 3 -5 8 -4 10 3 5 8 -5 12 2 13 21 2
25 2 26 6 4 3 -13 0 -28 -5 -33z m989 19 c-8 -8 -11 -7 -11 4 0 20 13 34 18
19 3 -7 -1 -17 -7 -23z m119 8 c0 -14 -5 -25 -11 -25 -7 0 -18 -8 -26 -17 -10
-14 -13 -14 -11 -3 2 8 11 22 21 31 9 9 17 21 17 28 0 6 2 11 5 11 3 0 5 -11
5 -25z m-2187 -15 c3 -11 1 -18 -4 -14 -5 3 -9 12 -9 20 0 20 7 17 13 -6z
m2047 -22 c0 -5 -4 -8 -10 -8 -5 0 -10 10 -10 23 0 18 2 19 10 7 5 -8 10 -18
10 -22z m-1314 8 c21 -21 17 -26 -10 -13 -13 7 -22 15 -20 19 7 11 14 10 30
-6z m1488 -11 c-4 -8 -11 -15 -16 -15 -6 0 -5 6 2 15 7 8 14 15 16 15 2 0 1
-7 -2 -15z m-2194 -15 c0 -5 -5 -10 -11 -10 -5 0 -7 5 -4 10 3 6 8 10 11 10 2
0 4 -4 4 -10z m640 -3 c0 -8 -12 -20 -27 -27 -17 -7 -23 -14 -15 -17 20 -7 62
25 56 42 -4 8 -1 15 4 15 16 0 24 -18 12 -25 -17 -10 -11 -23 13 -28 12 -3 7
-4 -13 -4 -20 0 -41 -2 -47 -6 -6 -4 -25 -4 -42 -1 l-31 7 42 27 c52 34 48 33
48 17z m177 -13 c-3 -3 -12 -4 -19 -1 -8 3 -5 6 6 6 11 1 17 -2 13 -5z m-1862
-96 c7 -5 6 -8 -1 -8 -13 0 -74 74 -74 91 0 7 14 -7 32 -32 18 -24 37 -47 43
-51z m3151 78 c7 -18 -23 -51 -53 -60 -14 -5 -23 -15 -23 -28 0 -13 -5 -18
-14 -15 -10 4 -13 1 -9 -9 3 -7 0 -14 -6 -14 -17 0 -13 28 5 38 9 5 16 13 16
18 1 15 35 54 47 54 6 0 11 7 11 15 0 19 19 20 26 1z m-2094 -25 c6 10 7 3 3
-21 -4 -23 -3 -30 3 -21 10 13 14 10 25 -20 4 -13 1 -16 -14 -12 -18 5 -40 60
-38 93 1 8 4 4 6 -9 4 -19 7 -21 15 -10z m574 -28 c30 -14 54 -30 54 -35 0 -4
6 -8 14 -8 8 0 43 -13 78 -28 34 -16 68 -30 73 -31 6 -2 29 -12 53 -22 23 -11
47 -17 51 -14 5 3 11 -1 14 -7 4 -10 7 -11 18 0 7 6 22 11 33 11 19 -1 19 -2
2 -6 -16 -4 -15 -7 10 -24 16 -10 41 -19 56 -19 15 0 30 -5 33 -10 4 -6 14
-10 23 -8 10 1 22 -1 28 -4 19 -12 195 -38 257 -38 32 0 67 5 79 11 11 6 23 7
26 3 4 -4 2 -9 -5 -11 -7 -2 -10 -10 -7 -16 5 -13 5 -13 -112 -72 -43 -22 -81
-42 -84 -46 -18 -22 -349 -132 -432 -144 -31 -5 -48 -12 -48 -21 0 -8 -4 -14
-8 -14 -13 0 -32 23 -32 39 0 13 2 13 9 2 11 -18 97 108 154 226 33 70 38 86
26 94 -11 7 -10 9 4 9 10 0 15 5 12 10 -8 12 -16 12 -34 1 -12 -8 -12 -12 -2
-25 10 -11 10 -19 1 -33 -10 -16 -11 -16 -7 5 5 21 -6 31 -16 15 -5 -10 -2 5
7 35 9 26 -9 30 -18 5 -3 -10 -12 -27 -19 -38 -49 -81 -67 -116 -68 -132 0
-11 -3 -13 -6 -5 -7 18 -79 -67 -75 -88 2 -11 1 -12 -6 -2 -7 10 -14 8 -35 -8
-82 -65 -201 -79 -295 -35 -55 25 -174 135 -192 178 -18 41 -86 141 -98 145
-7 2 -4 -11 8 -31 l20 -34 -25 5 c-14 2 -25 8 -25 13 0 5 8 6 18 2 16 -5 16
-5 1 8 -20 16 -37 65 -20 55 6 -4 11 -1 11 6 0 10 2 10 9 -1 6 -9 19 -12 40
-8 35 7 258 106 316 141 52 31 66 31 131 -1z m1164 -3 c-20 -13 -33 -13 -25 0
3 6 14 10 23 10 15 0 15 -2 2 -10z m-663 -6 c-3 -3 -12 -4 -19 -1 -8 3 -5 6 6
6 11 1 17 -2 13 -5z m586 -11 c-7 -2 -21 -2 -30 0 -10 3 -4 5 12 5 17 0 24 -2
18 -5z m-608 -13 c3 -6 -1 -7 -9 -4 -18 7 -21 14 -7 14 6 0 13 -4 16 -10z
m550 0 c7 -12 -2 -12 -30 0 -19 8 -19 9 2 9 12 1 25 -3 28 -9z m145 0 c0 -5
-4 -10 -9 -10 -6 0 -13 5 -16 10 -3 6 1 10 9 10 9 0 16 -4 16 -10z m-73 -6
c-3 -3 -12 -4 -19 -1 -8 3 -5 6 6 6 11 1 17 -2 13 -5z m-900 -16 c-13 -8 -4
-11 28 -9 17 1 17 0 -3 -9 -17 -7 -32 -5 -58 8 l-34 17 39 0 c22 0 34 -3 28
-7z m1083 -3 c0 -8 -7 -15 -15 -15 -8 0 -15 7 -15 15 0 8 7 15 15 15 8 0 15
-7 15 -15z m-1791 -47 c1 -5 -3 -8 -9 -8 -5 0 -10 12 -9 28 0 24 1 25 9 7 5
-11 9 -23 9 -27z m791 12 c12 -8 11 -10 -7 -10 -13 0 -23 5 -23 10 0 13 11 13
30 0z m1080 -15 c0 -7 -7 -16 -16 -19 -10 -4 -13 -13 -9 -28 5 -20 4 -21 -5
-5 -6 9 -18 17 -27 17 -13 0 -10 7 12 30 28 29 45 31 45 5z m-910 -4 c0 -5 -6
-11 -14 -14 -19 -8 -57 3 -50 14 7 12 64 12 64 0z m80 -21 c0 -5 -10 -10 -22
-10 -19 0 -20 2 -8 10 19 13 30 13 30 0z m-60 -31 c0 -5 -4 -9 -10 -9 -5 0
-10 7 -10 16 0 8 5 12 10 9 6 -3 10 -10 10 -16z m-1950 -10 c0 -5 -4 -9 -10
-9 -5 0 -10 7 -10 16 0 8 5 12 10 9 6 -3 10 -10 10 -16z m2756 14 c-10 -11
-66 -11 -60 -1 3 4 19 8 36 8 17 0 28 -3 24 -7z m-2676 -41 c3 -2 -6 -1 -19 3
-16 5 -26 3 -32 -6 -11 -19 -32 2 -24 23 6 14 9 14 38 0 18 -8 34 -17 37 -20z
m1920 28 c-20 -13 -33 -13 -25 0 3 6 14 10 23 10 15 0 15 -2 2 -10z m-1050
-26 c0 -36 154 -306 186 -326 6 -4 18 -18 27 -32 l16 -24 -37 8 c-44 10 -226
30 -264 30 -16 0 -28 4 -28 10 0 5 -17 12 -37 16 -57 9 -188 51 -272 85 -86
36 -258 124 -282 145 -8 8 -21 14 -27 14 -7 0 -12 4 -12 9 0 11 -39 26 -58 23
-6 -2 -20 2 -30 7 -27 16 48 14 141 -4 148 -28 353 -16 547 34 109 28 130 29
130 5z m1857 10 c-3 -3 -12 -4 -19 -1 -8 3 -5 6 6 6 11 1 17 -2 13 -5z m-74
-32 c-6 -15 -5 -15 10 -3 11 9 17 10 17 2 0 -15 -34 -17 -70 -5 -11 4 -9 9 10
19 29 16 42 11 33 -13z m-147 3 c-11 -8 -36 -14 -55 -14 l-36 1 38 8 c20 4 40
10 44 13 3 4 11 7 17 7 6 0 2 -7 -8 -15z m-419 -1 c-3 -3 -12 -4 -19 -1 -8 3
-5 6 6 6 11 1 17 -2 13 -5z m156 -11 c-13 -2 -35 -2 -50 0 -16 2 -5 4 22 4 28
0 40 -2 28 -4z m-1288 -37 l20 -15 -20 -1 c-12 0 -16 -3 -9 -8 6 -4 14 -18 17
-31 5 -21 4 -22 -8 -10 -13 14 -55 85 -55 95 0 6 28 -9 55 -30z m752 2 c-3 -7
-5 -2 -5 12 0 14 2 19 5 13 2 -7 2 -19 0 -25z m-1682 12 c3 -5 1 -10 -4 -10
-6 0 -11 5 -11 10 0 6 2 10 4 10 3 0 8 -4 11 -10z m2295 0 c0 -5 -4 -10 -10
-10 -5 0 -10 5 -10 10 0 6 5 10 10 10 6 0 10 -4 10 -10z m-2225 -10 c-3 -5
-12 -10 -18 -10 -7 0 -6 4 3 10 19 12 23 12 15 0z m2500 -11 c1 -7 -11 -24
-26 -37 -16 -13 -29 -19 -29 -13 0 6 5 11 10 11 6 0 10 5 10 10 0 16 -14 12
-43 -15 -15 -14 -27 -21 -27 -16 0 15 59 53 74 48 10 -4 12 1 8 15 -3 14 -1
19 8 16 7 -2 14 -11 15 -19z m-2455 -24 c15 -18 -1 -20 -18 -3 -19 19 -27 0
-8 -21 17 -19 17 -19 -3 -14 -28 7 -30 53 -2 53 10 0 24 -7 31 -15z m1553 -33
c-5 -22 -23 -31 -23 -12 0 10 23 40 27 36 1 -1 0 -12 -4 -24z m-31 -33 c7 -4
6 -9 -1 -13 -6 -4 -11 -1 -11 6 0 10 -3 9 -10 -2 -5 -8 -13 -11 -17 -6 -4 5
-2 11 5 13 6 3 13 17 13 31 l2 27 4 -25 c3 -14 10 -28 15 -31z m593 -5 c-10
-8 -35 -14 -54 -14 l-36 0 40 34 c39 33 40 33 54 13 13 -18 12 -21 -4 -33z
m-2029 31 c10 -8 14 -15 7 -15 -19 0 -43 11 -43 21 0 13 14 11 36 -6z m2304
-4 c0 -5 -7 -12 -16 -15 -14 -5 -15 -4 -4 9 14 17 20 19 20 6z m-355 -11 c-3
-5 -12 -10 -18 -10 -7 0 -6 4 3 10 19 12 23 12 15 0z m-1944 -17 l-23 -5 21
-14 c12 -9 21 -20 21 -26 0 -6 -10 -2 -23 10 -13 12 -30 22 -38 23 -8 0 -6 4
6 9 11 5 29 8 40 8 16 -1 15 -2 -4 -5z m789 -14 c0 -5 -4 -9 -10 -9 -5 0 -10
7 -10 16 0 8 5 12 10 9 6 -3 10 -10 10 -16z m67 -49 l24 0 -21 -22 c-21 -23
-28 -22 -34 8 -3 11 -9 32 -15 47 -17 43 -11 47 6 5 12 -29 21 -38 40 -38z
m523 15 c0 -5 -4 -4 -9 4 -8 13 -12 13 -28 1 -16 -13 -16 -12 1 8 15 17 22 19
28 10 4 -7 8 -17 8 -23z m-600 -18 c0 -16 -18 3 -23 25 -6 22 -5 22 8 4 8 -11
15 -24 15 -29z m1060 23 c0 -5 -4 -10 -10 -10 -5 0 -10 5 -10 10 0 6 5 10 10
10 6 0 10 -4 10 -10z m-1037 -15 c4 -8 2 -17 -3 -20 -6 -4 -10 3 -10 14 0 25
6 27 13 6z m-618 -15 c-3 -5 -10 -10 -16 -10 -5 0 -9 5 -9 10 0 6 7 10 16 10
8 0 12 -4 9 -10z m1194 -3 c6 -8 8 -17 4 -20 -3 -4 -12 1 -19 11 -17 23 -29 9
-14 -17 14 -28 -1 -27 -19 0 -11 18 -11 23 1 30 19 12 34 11 47 -4z m-1234
-15 c-3 -3 -11 0 -18 7 -9 10 -8 11 6 5 10 -3 15 -9 12 -12z m1899 12 c9 -3
16 -12 16 -20 0 -20 -13 -17 -28 6 -13 22 -12 23 12 14z m-1137 -26 c-3 -8 -6
-5 -6 6 -1 11 2 17 5 13 3 -3 4 -12 1 -19z m-757 -13 c14 -8 21 -14 15 -14 -5
0 -21 6 -35 14 -14 8 -20 14 -15 14 6 0 21 -6 35 -14z m203 -7 c15 -6 27 -14
27 -18 0 -4 10 -11 23 -15 29 -8 16 -13 -58 -18 -56 -4 -58 -3 -30 9 17 7 24
13 18 14 -7 0 -13 5 -13 11 0 6 9 8 23 4 19 -5 20 -4 4 5 -9 6 -21 8 -27 5
-12 -8 -60 5 -60 16 0 10 51 3 93 -13z m937 12 c0 -5 -9 -10 -21 -10 -11 0
-17 5 -14 10 3 6 13 10 21 10 8 0 14 -4 14 -10z m373 3 c-7 -2 -19 -2 -25 0
-7 3 -2 5 12 5 14 0 19 -2 13 -5z m-716 -9 c-3 -3 -12 -4 -19 -1 -8 3 -5 6 6
6 11 1 17 -2 13 -5z m378 -3 c3 -5 1 -12 -5 -16 -5 -3 -10 1 -10 9 0 18 6 21
15 7z m375 -1 c0 -5 -7 -10 -16 -10 -8 0 -12 5 -9 10 3 6 10 10 16 10 5 0 9
-4 9 -10z m-480 -10 c0 -5 -5 -10 -11 -10 -5 0 -7 5 -4 10 3 6 8 10 11 10 2 0
4 -4 4 -10z m397 3 c-9 -2 -15 -8 -13 -11 2 -4 -19 -7 -47 -8 l-52 0 40 12
c22 7 51 12 65 12 16 0 19 -2 7 -5z m-1187 -13 c13 -8 13 -10 -2 -10 -9 0 -20
5 -23 10 -8 13 5 13 25 0z m593 -7 c-7 -2 -19 -2 -25 0 -7 3 -2 5 12 5 14 0
19 -2 13 -5z m265 0 c-10 -2 -26 -2 -35 0 -10 3 -2 5 17 5 19 0 27 -2 18 -5z
m409 1 c-3 -3 -12 -4 -19 -1 -8 3 -5 6 6 6 11 1 17 -2 13 -5z m-1407 -8 c0 -9
-40 -13 -46 -5 -3 5 6 9 20 9 14 0 26 -2 26 -4z m590 -18 c0 -6 -6 -5 -15 2
-8 7 -15 14 -15 16 0 2 7 1 15 -2 8 -4 15 -11 15 -16z m1025 11 c2 -3 -9 -13
-25 -22 -18 -11 -31 -14 -35 -7 -3 5 1 10 9 10 8 0 17 4 20 8 3 5 -17 7 -44 4
-28 -2 -50 0 -50 5 0 9 115 11 125 2z m-1406 -50 c-19 -11 -24 -3 -8 14 8 9
16 11 18 5 2 -6 -3 -14 -10 -19z m120 22 c9 -6 10 -11 2 -15 -6 -4 -9 -11 -6
-16 3 -5 -9 -4 -27 3 -29 10 -30 12 -10 15 12 2 20 8 17 13 -8 11 6 12 24 0z
m1201 -11 c0 -13 -11 -13 -30 0 -12 8 -11 10 8 10 12 0 22 -4 22 -10z m-1127
-7 c-7 -2 -21 -2 -30 0 -10 3 -4 5 12 5 17 0 24 -2 18 -5z m157 -13 c13 -8 13
-10 -2 -10 -9 0 -20 5 -23 10 -8 13 5 13 25 0z m-92 -7 c-15 -2 -42 -2 -60 0
-18 2 -6 4 27 4 33 0 48 -2 33 -4z m569 1 c-3 -3 -12 -4 -19 -1 -8 3 -5 6 6 6
11 1 17 -2 13 -5z m-817 -14 c-20 -13 -33 -13 -25 0 3 6 14 10 23 10 15 0 15
-2 2 -10z m80 0 c-11 -7 -11 -10 -2 -10 7 0 11 -4 8 -9 -4 -5 0 -12 6 -14 8
-3 6 -6 -4 -6 -10 -1 -18 6 -18 14 0 9 -10 15 -22 16 -22 1 -22 1 2 9 35 11
48 11 30 0z m1030 -1 c0 -7 10 -9 25 -5 34 9 32 1 -4 -17 -25 -12 -29 -12 -24
-1 3 8 0 14 -6 14 -6 0 -11 5 -11 10 0 6 5 10 10 10 6 0 10 -5 10 -11z m80 1
c0 -5 -5 -10 -11 -10 -5 0 -7 5 -4 10 3 6 8 10 11 10 2 0 4 -4 4 -10z m-1047
-7 c-7 -2 -19 -2 -25 0 -7 3 -2 5 12 5 14 0 19 -2 13 -5z m933 -2 c-3 -5 -15
-7 -26 -4 -28 7 -25 13 6 13 14 0 23 -4 20 -9z m-926 -21 c0 -5 -7 -10 -16
-10 -8 0 -12 5 -9 10 3 6 10 10 16 10 5 0 9 -4 9 -10z m481 -54 c-11 -4 -51
-4 -92 1 l-74 10 92 -1 c60 -1 86 -4 74 -10z m232 7 c-7 -2 -21 -2 -30 0 -10
3 -4 5 12 5 17 0 24 -2 18 -5z m-446 -9 c-3 -3 -12 -4 -19 -1 -8 3 -5 6 6 6
11 1 17 -2 13 -5z m366 -1 c-7 -2 -21 -2 -30 0 -10 3 -4 5 12 5 17 0 24 -2 18
-5z m-265 -10 c-10 -2 -26 -2 -35 0 -10 3 -2 5 17 5 19 0 27 -2 18 -5z"/>
<path d="M3166 6294 c-4 -10 -1 -14 6 -12 15 5 23 28 10 28 -5 0 -13 -7 -16
-16z"/>
<path d="M4445 5050 c3 -5 8 -10 11 -10 2 0 4 5 4 10 0 6 -5 10 -11 10 -5 0
-7 -4 -4 -10z"/>
<path d="M4860 4450 c0 -5 5 -10 10 -10 6 0 10 5 10 10 0 6 -4 10 -10 10 -5 0
-10 -4 -10 -10z"/>
<path d="M3340 5475 c-106 -30 -188 -92 -242 -183 -48 -81 -61 -136 -56 -240
3 -73 9 -99 34 -147 45 -91 111 -156 196 -196 67 -31 80 -34 168 -33 81 0 104
4 152 26 32 15 74 39 94 54 54 42 112 130 136 207 61 204 -54 432 -254 503
-64 22 -165 26 -228 9z"/>
<path d="M2397 3915 c10 -13 24 -26 31 -29 7 -3 2 8 -10 24 -12 17 -26 30 -30
30 -5 0 -1 -11 9 -25z"/>
<path d="M2510 3700 c0 -5 5 -10 10 -10 6 0 10 5 10 10 0 6 -4 10 -10 10 -5 0
-10 -4 -10 -10z"/>
<path d="M1780 3010 c0 -5 5 -10 10 -10 6 0 10 5 10 10 0 6 -4 10 -10 10 -5 0
-10 -4 -10 -10z"/>
<path d="M4380 2530 c0 -5 5 -10 10 -10 6 0 10 5 10 10 0 6 -4 10 -10 10 -5 0
-10 -4 -10 -10z"/>
<path d="M2195 1863 c-203 -27 -344 -143 -411 -339 -38 -109 -40 -255 -5 -361
85 -262 338 -399 625 -338 160 34 277 122 342 258 19 39 34 77 34 84 0 10 -27
13 -109 13 l-108 0 -26 -39 c-68 -102 -131 -135 -262 -136 -77 0 -97 4 -139
25 -110 56 -161 154 -161 310 0 152 48 245 156 305 49 27 63 30 144 30 78 -1
97 -4 141 -27 49 -26 111 -84 134 -127 10 -19 19 -21 120 -21 83 0 110 3 110
13 0 35 -72 157 -123 208 -108 110 -287 165 -462 142z"/>
<path d="M2937 1853 c-3 -4 -5 -238 -4 -518 l2 -510 285 0 c316 0 344 4 422
60 95 69 132 193 92 305 -22 60 -97 137 -144 147 -46 9 -45 19 5 43 54 26 111
90 119 133 22 119 -1 205 -69 265 -80 70 -105 75 -421 80 -155 2 -284 0 -287
-5z m498 -177 c68 -29 96 -125 55 -191 -30 -49 -60 -58 -207 -63 l-133 -4 0
136 0 136 125 0 c87 0 136 -4 160 -14z m35 -430 c49 -32 63 -64 58 -133 -8
-101 -52 -123 -243 -123 l-135 0 0 145 0 146 140 -4 c132 -4 142 -6 180 -31z"/>
<path d="M3890 1340 l0 -520 105 0 105 0 2 193 3 192 155 6 c171 6 206 14 276
62 100 67 147 185 125 311 -16 92 -24 110 -76 165 -86 91 -169 110 -492 111
l-203 0 0 -520z m497 324 c87 -64 83 -216 -7 -269 -30 -17 -52 -20 -155 -20
l-120 0 -3 159 -3 158 130 -3 c112 -4 133 -7 158 -25z"/>
<path d="M4800 1340 l0 -520 105 0 105 0 0 220 0 219 97 3 96 3 29 69 c15 38
28 71 28 73 0 1 -56 3 -125 3 l-125 0 0 145 0 145 189 0 188 0 32 68 c17 38
31 74 31 80 0 9 -83 12 -325 12 l-325 0 0 -520z"/>
</g>
</svg>
