<?xml version="1.0" standalone="no"?>
<!DOCTYPE svg PUBLIC "-//W3C//DTD SVG 20010904//EN"
 "http://www.w3.org/TR/2001/REC-SVG-20010904/DTD/svg10.dtd">
<svg version="1.0" xmlns="http://www.w3.org/2000/svg"
 width="750.000000pt" height="750.000000pt" viewBox="0 0 750.000000 750.000000"
 preserveAspectRatio="xMidYMid meet">
<metadata>
Created by potrace 1.16, written by Peter Selinger 2001-2019
</metadata>
<g transform="translate(0.000000,750.000000) scale(0.100000,-0.100000)"
fill="#000000" stroke="none">
<path d="M3700 6704 c-204 -22 -386 -83 -535 -179 -111 -71 -211 -177 -235
-250 -11 -33 -9 -37 28 -87 l40 -52 -39 -17 c-23 -11 -39 -25 -40 -36 -3 -49
6 -83 38 -148 20 -38 39 -82 43 -97 7 -24 6 -26 -18 -25 -30 2 -41 -24 -19
-44 8 -8 12 -20 10 -29 -2 -8 9 -28 25 -43 l29 -28 -4 -587 c-2 -323 -6 -633
-9 -689 l-6 -103 -366 -1 c-469 -2 -452 -1 -452 -35 0 -12 212 -14 1590 -14
1418 0 1590 2 1590 15 0 9 -12 20 -26 25 -15 6 -184 10 -408 10 l-383 0 -7 88
c-3 48 -7 360 -8 694 l-2 607 28 22 c16 13 26 29 23 38 -2 9 2 22 10 30 23 21
11 46 -20 44 -15 -1 -27 1 -27 4 0 4 20 50 45 104 54 113 60 162 24 187 -13 9
-34 19 -47 22 -21 5 -21 7 23 60 53 64 52 76 -8 163 -100 143 -344 280 -589
331 -77 16 -238 27 -298 20z m350 -79 c204 -53 399 -167 498 -293 48 -61 48
-71 -6 -130 l-47 -53 -724 3 -724 3 -40 47 -40 48 24 46 c36 69 157 176 259
229 103 53 236 99 346 120 122 23 321 14 454 -20z m318 -540 c9 -33 13 -1645
5 -1725 l-8 -75 -582 -3 -583 -2 -6 25 c-3 14 -4 39 0 55 3 17 1 30 -4 30 -7
0 -9 279 -6 803 4 937 4 895 11 908 4 6 225 8 587 7 572 -3 581 -3 586 -23z
m-1210 -32 l3 -33 -58 0 -59 0 4 35 4 36 52 -3 c50 -3 51 -4 54 -35z m1352 2
l0 -35 -55 0 -55 0 0 35 0 35 55 0 55 0 0 -35z m-1380 -226 l0 -140 -27 3 -28
3 -3 138 -3 137 31 0 30 0 0 -141z m1357 -1 l1 -138 -29 0 -29 0 0 141 0 140
28 -3 27 -3 2 -137z m-1355 -186 c4 -1 5 -269 2 -594 -3 -326 -5 -605 -5 -620
1 -25 -3 -28 -29 -28 l-30 0 0 624 0 623 28 -2 c15 -1 30 -3 34 -3z m1356
-620 l2 -622 -30 0 -30 0 0 619 c0 644 -1 633 40 628 13 -2 15 -80 18 -625z
m-1330 -704 c-3 -32 -4 -33 -55 -36 l-53 -3 0 35 0 36 56 0 55 0 -3 -32z
m1352 -3 l0 -35 -55 0 -55 0 0 35 0 35 55 0 55 0 0 -35z"/>
<path d="M3600 6585 c-189 -43 -334 -107 -424 -187 -57 -51 -77 -79 -101 -149
l-14 -39 720 0 721 0 -7 33 c-25 120 -236 263 -490 332 -86 23 -321 29 -405
10z m375 -34 c130 -36 272 -111 340 -179 34 -33 85 -102 85 -114 0 -4 -277 -8
-615 -8 -660 0 -634 -2 -599 50 80 119 249 219 444 261 104 23 242 19 345 -10z"/>
<path d="M3812 6499 c-21 -8 -42 -44 -42 -75 0 -27 38 -55 66 -48 24 6 25 5
15 -14 -6 -11 -23 -30 -38 -42 l-28 -21 25 7 c72 19 115 119 72 170 -22 27
-41 33 -70 23z m35 -17 c7 -4 15 -22 19 -39 5 -25 2 -33 -14 -42 -17 -9 -23
-7 -36 11 -34 48 -11 97 31 70z"/>
<path d="M3636 6484 c-3 -9 -6 -23 -6 -32 0 -14 2 -13 13 2 9 12 23 17 46 14
l33 -3 -31 -59 c-34 -63 -41 -116 -16 -116 10 0 15 10 15 30 0 16 9 53 20 82
11 29 20 63 20 76 0 19 -5 22 -44 22 -31 0 -46 -5 -50 -16z"/>
<path d="M3536 6475 c-11 -8 -14 -15 -8 -15 8 0 12 -23 12 -70 0 -40 -4 -70
-10 -70 -5 0 -10 -4 -10 -9 0 -10 57 -8 67 3 3 3 1 6 -5 6 -8 0 -12 27 -12 85
0 47 -3 85 -7 85 -5 0 -17 -7 -27 -15z"/>
<path d="M3968 6435 c-27 -33 -48 -66 -48 -72 0 -8 14 -13 35 -13 32 0 35 -2
35 -30 0 -20 5 -30 15 -30 10 0 15 10 15 30 0 20 5 30 15 30 8 0 15 7 15 15 0
8 -7 15 -15 15 -10 0 -15 15 -17 58 l-3 57 -47 -60z m22 -25 c0 -23 -4 -30
-20 -30 -24 0 -25 4 -4 35 21 32 24 31 24 -5z"/>
<path d="M3300 5200 l0 -800 480 0 480 0 -2 798 -3 797 -477 3 -478 2 0 -800z
m760 700 c-58 -27 -112 -54 -120 -58 -13 -8 -15 -91 -15 -648 l0 -638 25 -13
c14 -8 68 -33 120 -58 l95 -44 -385 0 -385 1 85 38 c47 22 101 47 120 57 l35
18 3 620 c1 341 0 629 -2 641 -4 15 -37 35 -116 73 -60 28 -110 53 -110 56 0
3 170 5 378 5 l377 -1 -105 -49z m-586 -29 c59 -28 112 -51 117 -51 5 0 9 -93
9 -206 l0 -206 -29 7 c-15 3 -72 20 -125 38 l-97 32 0 215 c0 257 -1 232 9
227 4 -3 56 -28 116 -56z m746 -164 l0 -224 -119 -36 c-65 -20 -123 -37 -130
-37 -8 0 -11 57 -11 203 l1 202 122 57 c67 31 125 57 130 57 4 1 7 -99 7 -222z
m-625 -522 l0 -189 -115 -38 c-63 -20 -119 -37 -125 -37 -6 -1 -9 91 -8 261 1
145 3 264 3 264 0 1 55 -15 123 -36 l122 -37 0 -188z m625 0 c0 -146 -4 -265
-8 -265 -5 0 -62 16 -128 35 -65 19 -120 35 -121 35 -2 0 -3 85 -3 189 l0 190
123 39 c67 22 125 40 130 41 4 1 7 -118 7 -264z m-622 -415 l-3 -191 -122 -54
-123 -54 0 27 c0 15 -1 108 -1 207 l-1 180 94 28 c51 16 104 32 118 37 14 5
28 9 33 9 4 1 6 -85 5 -189z m520 140 l102 -31 0 -199 c0 -109 -3 -201 -7
-203 -5 -2 -63 21 -130 51 l-123 54 0 189 0 188 28 -9 c15 -5 73 -23 130 -40z"/>
<path d="M4911 3989 c-100 -19 -189 -88 -231 -177 -32 -65 -31 -178 0 -245 43
-92 117 -140 348 -228 139 -52 192 -116 192 -231 0 -122 -74 -188 -209 -188
-131 0 -262 121 -312 288 -11 38 -15 42 -43 42 l-31 0 3 -177 c2 -98 5 -184 7
-190 2 -7 17 -13 33 -13 20 0 32 8 45 29 l17 30 54 -25 c209 -95 433 -51 542
109 78 113 67 277 -24 370 -48 50 -100 79 -224 128 -139 55 -188 81 -226 120
-40 41 -56 88 -50 149 15 149 212 200 336 87 49 -46 74 -90 107 -187 20 -60
24 -65 54 -68 l31 -3 -2 178 -3 178 -31 3 c-24 2 -35 -3 -47 -22 l-17 -25 -42
24 c-85 47 -182 63 -277 44z"/>
<path d="M2192 3943 c2 -21 9 -29 28 -31 60 -7 108 -33 119 -64 14 -40 15
-826 1 -862 -11 -30 -36 -42 -102 -51 -42 -6 -48 -9 -48 -31 l0 -24 454 0 454
0 5 43 c4 23 9 95 13 160 l6 117 -28 0 c-25 0 -32 -6 -48 -48 -26 -62 -79
-153 -103 -174 -31 -27 -92 -38 -221 -38 -152 0 -186 11 -201 67 -6 21 -11
120 -11 221 l0 182 90 0 c142 0 176 -22 203 -130 12 -48 18 -55 41 -58 l26 -3
0 215 0 216 -30 0 c-24 0 -30 -4 -30 -22 -1 -36 -35 -103 -65 -126 -24 -19
-40 -22 -131 -22 l-104 0 0 215 0 215 145 0 c106 0 155 -4 181 -15 44 -18 96
-75 125 -137 19 -41 27 -48 51 -48 l28 0 0 130 0 130 -426 0 -425 0 3 -27z"/>
<path d="M3272 3944 c2 -22 11 -29 45 -39 70 -21 110 -52 128 -98 14 -36 15
-92 13 -414 -3 -434 1 -414 -107 -446 -53 -16 -61 -22 -61 -43 l0 -24 220 0
220 0 0 25 c0 20 -7 26 -42 35 -141 35 -142 37 -146 400 -2 157 -2 314 0 349
l3 65 330 -447 c315 -426 331 -447 362 -447 l32 0 3 473 c3 540 2 531 79 560
24 8 55 17 69 19 19 2 26 10 28 31 l3 27 -225 0 -226 0 0 -25 c0 -20 7 -26 43
-35 97 -26 109 -33 131 -80 19 -42 20 -69 24 -362 2 -175 0 -318 -4 -318 -5 1
-74 89 -154 198 -79 108 -194 265 -255 347 -61 83 -131 178 -155 212 l-45 62
-158 1 -158 0 3 -26z"/>
<path d="M2160 2405 l0 -25 1630 0 1630 0 0 25 0 25 -1630 0 -1630 0 0 -25z"/>
<path d="M3220 1903 c-102 -18 -185 -76 -217 -151 -26 -61 -22 -151 10 -205
38 -64 83 -98 232 -173 72 -36 146 -81 165 -100 32 -32 35 -39 35 -93 0 -70
-20 -104 -79 -134 -54 -28 -113 -32 -182 -12 -48 14 -69 28 -121 81 l-63 65
-35 -27 c-19 -14 -35 -30 -35 -34 0 -16 60 -88 99 -120 68 -53 144 -80 231
-79 185 0 300 100 300 261 0 128 -53 186 -269 298 -76 38 -148 81 -161 95 -30
32 -39 110 -16 153 9 18 34 41 58 53 83 42 218 8 280 -71 l23 -29 39 33 39 33
-43 46 c-70 77 -201 126 -290 110z"/>
<path d="M2230 1409 l0 -480 53 3 52 3 5 200 5 200 145 0 c135 0 149 2 200 26
63 30 103 67 133 124 33 62 31 193 -4 260 -14 28 -44 64 -67 82 -70 53 -121
63 -334 63 l-188 0 0 -481z m425 358 c90 -55 111 -198 41 -275 -42 -47 -73
-55 -218 -60 l-138 -5 0 183 0 182 143 -4 c116 -2 148 -6 172 -21z"/>
<path d="M3760 1410 l0 -480 273 2 272 3 3 48 3 47 -220 0 -221 0 0 430 0 430
-55 0 -55 0 0 -480z"/>
<path d="M4472 1413 l3 -478 473 -3 472 -2 0 480 0 480 -475 0 -475 0 2 -477z
m468 456 c0 -9 -91 -302 -96 -308 -2 -2 -75 -3 -163 -2 -89 1 -161 -2 -161 -6
1 -4 47 -41 103 -81 56 -39 114 -82 130 -95 l28 -22 -45 -133 c-25 -73 -44
-133 -44 -135 3 -7 -14 -47 -20 -47 -12 0 -88 83 -116 127 -15 23 -36 68 -46
100 -11 32 -19 51 -19 42 -2 -33 32 -110 74 -171 l44 -63 -42 -45 -42 -45 47
44 47 44 34 -30 c39 -35 127 -79 172 -88 17 -3 6 4 -23 15 -68 25 -126 60
-115 70 4 4 63 48 131 98 88 65 118 92 105 95 -12 3 -8 5 10 6 15 0 27 -3 27
-8 0 -4 56 -50 125 -101 87 -66 121 -97 115 -105 -6 -7 -28 -20 -50 -30 -22
-10 -38 -20 -36 -22 2 -2 28 8 57 22 60 31 149 116 173 166 16 33 16 33 -1 10
-55 -76 -118 -139 -128 -129 -2 2 -13 32 -24 67 -18 57 -18 62 -3 57 14 -5 14
-4 -1 8 -10 8 -31 50 -46 94 l-29 81 22 19 c57 51 229 171 238 166 18 -12 -9
30 -34 51 l-23 20 19 -22 c11 -13 14 -23 8 -23 -7 -1 -61 -1 -122 -1 -200 0
-183 -2 -177 26 2 14 2 23 -2 20 -4 -5 -90 245 -91 266 0 3 104 7 230 8 l230
2 0 -180 c0 -108 -4 -182 -10 -186 -5 -3 -7 0 -5 8 3 7 1 24 -4 38 -8 20 -9
18 -6 -16 3 -22 9 -57 14 -79 10 -41 6 -118 -8 -145 -5 -9 -5 -25 0 -36 9 -18
9 -18 5 3 -2 12 0 22 5 22 6 0 8 -75 7 -182 l-3 -183 -185 -2 c-116 -1 -178 2
-165 7 14 6 8 7 -21 4 -22 -4 -155 -7 -295 -8 l-254 -1 -2 468 -1 468 229 -2
c126 -1 229 -6 229 -10z m80 -293 c0 -2 -8 -10 -17 -17 -16 -13 -17 -12 -4 4
13 16 21 21 21 13z m-63 -118 c-3 -8 -6 -5 -6 6 -1 11 2 17 5 13 3 -3 4 -12 1
-19z m0 -110 c-3 -8 -6 -5 -6 6 -1 11 2 17 5 13 3 -3 4 -12 1 -19z m-108 -132
c-2 -2 -15 -9 -29 -15 -24 -11 -24 -11 -6 3 16 13 49 24 35 12z m261 -22 c22
-8 27 -13 15 -13 -11 0 -36 9 -55 20 -35 20 -28 19 40 -7z"/>
<path d="M4490 1866 c0 -2 8 -10 18 -17 15 -13 16 -12 3 4 -13 16 -21 21 -21
13z"/>
<path d="M4818 1863 c7 -3 16 -2 19 1 4 3 -2 6 -13 5 -11 0 -14 -3 -6 -6z"/>
<path d="M5110 1847 c108 -45 184 -112 244 -217 14 -25 26 -40 26 -34 0 23
-78 131 -126 173 -48 43 -155 101 -184 101 -8 0 10 -11 40 -23z"/>
<path d="M4730 1833 c-79 -41 -160 -125 -203 -212 -20 -40 -37 -83 -37 -95 1
-11 8 2 18 29 40 115 138 227 244 279 29 14 48 25 43 26 -6 0 -35 -12 -65 -27z"/>
<path d="M5335 1808 l-50 -53 53 50 c48 46 57 55 49 55 -1 0 -25 -24 -52 -52z"/>
<path d="M4700 1655 c30 -30 57 -55 59 -55 3 0 -19 25 -49 55 -30 30 -57 55
-59 55 -3 0 19 -25 49 -55z"/>
<path d="M5153 1643 c9 -2 23 -2 30 0 6 3 -1 5 -18 5 -16 0 -22 -2 -12 -5z"/>
<path d="M5108 1633 c7 -3 16 -2 19 1 4 3 -2 6 -13 5 -11 0 -14 -3 -6 -6z"/>
<path d="M5372 1235 c-17 -37 -14 -45 4 -12 9 16 14 31 11 33 -2 2 -9 -7 -15
-21z"/>
<path d="M5228 1183 c7 -3 16 -2 19 1 4 3 -2 6 -13 5 -11 0 -14 -3 -6 -6z"/>
<path d="M4661 994 c0 -11 3 -14 6 -6 3 7 2 16 -1 19 -3 4 -6 -2 -5 -13z"/>
</g>
</svg>
