<?xml version="1.0" standalone="no"?>
<!DOCTYPE svg PUBLIC "-//W3C//DTD SVG 20010904//EN"
 "http://www.w3.org/TR/2001/REC-SVG-20010904/DTD/svg10.dtd">
<svg version="1.0" xmlns="http://www.w3.org/2000/svg"
 width="706.000000pt" height="706.000000pt" viewBox="0 0 706.000000 706.000000"
 preserveAspectRatio="xMidYMid meet">
<metadata>
Created by potrace 1.16, written by Peter Selinger 2001-2019
</metadata>
<g transform="translate(0.000000,706.000000) scale(0.100000,-0.100000)"
fill="#000000" stroke="none">
<path d="M1012 3933 l3 -298 158 -3 157 -3 0 -134 0 -135 -160 0 -160 0 0
-295 0 -295 530 0 530 0 0 135 0 135 -370 0 -370 0 0 160 0 160 340 0 340 0 0
135 0 135 -340 0 -340 0 0 165 0 165 370 0 370 0 0 135 0 135 -530 0 -530 0 2
-297z"/>
<path d="M2340 3501 l0 -731 160 0 160 0 0 294 0 293 233 6 c181 4 244 9 287
22 170 53 265 147 305 300 50 193 -35 396 -200 479 -112 57 -128 59 -552 63
l-393 4 0 -730z m755 429 c69 -34 98 -80 92 -143 -11 -123 -94 -156 -384 -157
l-143 0 0 166 0 166 193 -4 c180 -3 195 -5 242 -28z"/>
<path d="M3700 3930 l0 -301 158 3 157 3 3 163 2 162 370 0 370 0 0 135 0 135
-530 0 -530 0 0 -300z"/>
<path d="M4990 3500 l0 -730 525 0 525 0 0 135 0 135 -370 0 -370 0 0 595 0
595 -155 0 -155 0 0 -730z"/>
<path d="M4020 3495 l0 -135 -160 0 -160 0 0 -295 0 -295 160 0 160 0 0 295 0
295 335 0 335 0 0 135 0 135 -335 0 -335 0 0 -135z"/>
</g>
</svg>
