<?xml version="1.0" standalone="no"?>
<!DOCTYPE svg PUBLIC "-//W3C//DTD SVG 20010904//EN"
 "http://www.w3.org/TR/2001/REC-SVG-20010904/DTD/svg10.dtd">
<svg version="1.0" xmlns="http://www.w3.org/2000/svg"
 width="797.000000pt" height="797.000000pt" viewBox="0 0 797.000000 797.000000"
 preserveAspectRatio="xMidYMid meet">
<metadata>
Created by potrace 1.16, written by Peter Selinger 2001-2019
</metadata>
<g transform="translate(0.000000,797.000000) scale(0.100000,-0.100000)"
fill="#000000" stroke="none">
<path d="M3800 7329 c-570 -50 -1114 -305 -1557 -732 -276 -266 -485 -550
-664 -904 -202 -399 -326 -817 -385 -1303 -22 -180 -26 -683 -6 -860 71 -642
271 -1212 597 -1705 213 -321 452 -575 745 -791 356 -263 774 -431 1200 -484
125 -15 427 -12 570 5 657 82 1288 451 1735 1015 33 41 62 77 65 80 14 13 112
156 178 260 140 220 306 587 386 850 234 776 232 1608 -5 2365 -250 799 -742
1458 -1379 1847 -454 277 -970 401 -1480 357z m515 -135 c500 -69 985 -308
1369 -674 176 -167 281 -288 409 -472 500 -717 719 -1612 621 -2533 -74 -695
-334 -1343 -744 -1855 -89 -112 -305 -334 -405 -417 -379 -315 -811 -507
-1285 -569 -173 -22 -497 -15 -660 16 -377 70 -680 196 -985 409 -420 294
-744 681 -990 1186 -553 1133 -490 2538 164 3605 227 372 524 683 881 921 482
323 1066 460 1625 383z"/>
<path d="M3785 7104 c-247 -35 -409 -75 -589 -146 -232 -91 -447 -216 -647
-376 -94 -75 -297 -274 -381 -372 -258 -304 -463 -671 -599 -1070 -291 -853
-258 -1823 91 -2646 48 -113 159 -335 193 -385 12 -19 36 -56 52 -84 15 -27
62 -97 103 -155 522 -731 1282 -1137 2072 -1107 589 22 1121 262 1579 710 734
720 1090 1831 945 2952 -126 977 -622 1823 -1354 2307 -123 81 -337 191 -465
237 -49 18 -101 37 -115 42 -43 15 -221 57 -315 75 -86 16 -495 29 -570 18z
m-970 -747 c51 -161 97 -274 180 -442 102 -205 187 -341 338 -538 77 -101 116
-249 97 -371 -14 -93 -52 -169 -148 -296 -101 -134 -124 -179 -131 -260 -7
-78 -26 -86 -56 -25 -16 31 -20 60 -20 130 0 97 -1 94 83 224 20 30 49 89 66
130 24 63 29 91 30 161 0 97 4 88 -143 330 -146 239 -262 485 -321 680 -25 81
-33 130 -37 216 -5 109 5 163 27 149 5 -3 21 -43 35 -88z m2461 71 c4 -13 7
-63 7 -113 -2 -153 -60 -331 -203 -620 -79 -160 -124 -240 -253 -449 -20 -32
-41 -83 -48 -114 -21 -103 21 -243 115 -385 20 -30 43 -73 51 -97 21 -60 19
-165 -4 -216 -34 -74 -60 -67 -61 16 0 63 -35 132 -135 265 -101 134 -133 198
-144 291 -18 150 18 264 130 414 217 289 401 646 484 935 28 97 46 118 61 73z
m-1306 -434 c0 -257 -2 -280 -20 -309 -33 -53 -109 -72 -168 -41 -27 14 -303
304 -311 327 -6 20 92 5 151 -24 29 -14 86 -53 127 -87 41 -33 76 -59 78 -57
2 2 10 60 18 128 16 137 46 257 76 306 18 28 38 45 47 38 2 -2 3 -128 2 -281z
m137 238 c39 -71 65 -177 83 -336 5 -49 12 -91 15 -94 2 -3 25 14 50 36 56 52
143 109 197 128 46 16 111 19 106 4 -7 -21 -285 -313 -310 -326 -60 -31 -151
-5 -176 51 -10 20 -15 272 -12 552 0 42 20 35 47 -15z m-1423 -202 c60 -246
164 -511 273 -698 24 -41 43 -76 43 -78 0 -3 18 -32 41 -66 63 -92 65 -177 7
-243 -38 -44 -39 -43 -117 83 -143 234 -227 450 -292 750 -36 167 -36 457 0
416 4 -5 25 -79 45 -164z m2726 144 c15 -39 12 -220 -5 -320 -45 -262 -137
-534 -242 -719 -64 -113 -135 -215 -148 -215 -17 0 -50 40 -65 78 -19 48 -7
115 30 175 182 288 323 626 383 919 12 59 25 108 30 108 4 0 12 -12 17 -26z
m-2851 -412 c1 -24 6 -76 12 -115 48 -329 133 -560 309 -845 69 -113 84 -163
68 -239 -15 -66 -48 -83 -165 -83 -82 0 -196 17 -245 35 -10 4 -18 15 -18 24
0 18 34 32 170 72 41 11 76 22 78 24 2 1 -11 26 -28 56 -154 261 -235 522
-247 794 -4 109 -2 147 17 234 11 58 24 109 27 115 10 15 22 -24 22 -72z
m2961 -37 c20 -100 22 -132 17 -248 -8 -156 -33 -288 -82 -433 -46 -134 -94
-240 -152 -333 -47 -75 -47 -90 -2 -91 9 0 60 -14 113 -31 74 -24 96 -35 96
-49 0 -10 -8 -21 -17 -25 -49 -18 -164 -35 -244 -35 -137 0 -169 26 -169 136
0 64 14 102 68 181 61 90 156 276 197 388 66 177 98 326 131 613 3 23 9 42 13
42 4 0 18 -52 31 -115z m-1576 -796 c55 -44 19 -101 -114 -179 -99 -57 -157
-81 -215 -87 -71 -7 -97 0 -118 36 -26 45 -21 56 36 79 29 12 102 51 162 87
150 90 200 102 249 64z m311 -24 c33 -18 96 -54 140 -79 44 -26 97 -52 118
-58 42 -13 44 -21 17 -65 -47 -79 -204 -47 -388 79 -74 50 -98 83 -88 121 14
56 103 56 201 2z m-285 -250 c24 -29 3 -86 -53 -140 -112 -108 -284 -157 -439
-124 -141 30 -192 96 -149 193 21 49 31 55 52 30 25 -31 94 -57 161 -62 80 -6
173 20 288 78 81 42 120 49 140 25z m232 -30 c168 -80 280 -95 378 -49 30 14
59 32 63 40 15 26 35 14 52 -31 33 -85 4 -138 -96 -176 -145 -56 -330 -24
-469 80 -49 37 -55 43 -74 78 -29 58 -16 103 30 103 12 0 64 -20 116 -45z
m2278 -60 c0 -17 -50 -67 -107 -106 -176 -122 -576 -229 -1052 -283 -157 -18
-213 -40 -284 -111 -58 -58 -105 -141 -146 -257 -61 -175 -110 -239 -234 -304
-178 -92 -281 -179 -326 -274 -30 -64 -32 -117 -13 -345 28 -328 2 -672 -64
-880 -23 -71 -71 -158 -95 -173 -22 -14 -43 -7 -35 13 2 7 14 68 25 136 46
272 45 576 -4 913 -29 206 -30 241 -10 321 22 85 62 152 127 217 58 57 124 95
280 158 143 58 190 104 216 210 6 25 23 95 38 155 32 133 51 172 118 243 95
101 234 151 416 152 332 1 746 83 1075 213 62 25 75 25 75 2z m-4749 -40 c327
-112 672 -175 969 -175 175 -1 313 -48 411 -142 66 -63 102 -144 139 -306 16
-73 36 -146 44 -164 25 -59 76 -95 219 -158 209 -90 285 -149 344 -265 57
-111 63 -182 34 -387 -37 -253 -44 -363 -38 -597 6 -208 17 -316 52 -478 18
-83 -67 -4 -110 101 -73 181 -110 561 -86 886 26 347 27 310 -4 379 -39 87
-140 179 -279 255 -177 97 -223 151 -285 329 -41 120 -87 202 -144 259 -76 76
-123 95 -283 113 -423 48 -787 138 -988 243 -103 54 -213 162 -165 162 6 0 82
-25 170 -55z m2306 -76 c69 -82 220 -164 332 -182 l69 -10 7 -163 c4 -90 4
-183 1 -207 -17 -114 -127 -261 -236 -315 -32 -17 -74 -40 -92 -53 -28 -20
-45 -24 -109 -24 -66 0 -80 3 -110 26 -19 14 -54 35 -79 46 -98 44 -203 169
-235 281 -17 58 -19 143 -7 311 l7 95 70 13 c100 18 217 79 290 151 33 32 61
59 63 60 2 1 15 -12 29 -29z m720 -137 c8 -62 -4 -106 -42 -146 -35 -38 -102
-72 -151 -78 l-29 -3 -3 83 c-2 73 -1 82 15 82 33 0 117 47 152 84 40 41 50
37 58 -22z m-1430 12 c42 -40 106 -73 141 -74 21 0 22 -4 22 -85 0 -58 -4 -85
-12 -85 -32 0 -122 37 -154 64 -43 35 -64 80 -64 136 0 37 14 80 25 80 3 0 22
-16 42 -36z m-1539 -58 c292 -134 541 -208 831 -247 86 -11 172 -25 191 -31
64 -19 120 -90 120 -153 0 -23 -3 -25 -51 -25 -120 0 -362 47 -529 102 -273
90 -518 219 -647 342 -38 35 -55 66 -37 66 3 0 58 -24 122 -54z m4582 40 c0
-8 -24 -36 -53 -62 -231 -211 -732 -403 -1125 -430 l-95 -7 6 36 c8 53 27 86
67 119 31 24 51 30 157 43 344 43 642 128 933 268 106 52 110 53 110 33z
m-2995 -296 c16 -17 45 -35 65 -41 34 -10 37 -15 53 -78 9 -36 19 -76 23 -89
6 -21 4 -22 -22 -16 -73 17 -133 64 -153 117 -13 33 -15 137 -3 137 5 0 21
-14 37 -30z m1310 0 c12 -56 -22 -150 -67 -181 -26 -17 -83 -39 -105 -39 -10
0 -12 6 -7 23 4 12 15 51 24 87 15 58 19 65 47 72 17 4 43 21 59 37 37 37 41
37 49 1z m-2530 -141 c237 -127 528 -212 795 -234 142 -12 219 -59 246 -151
13 -45 14 -77 6 -192 -22 -328 31 -629 164 -942 15 -36 31 -69 36 -74 11 -13
10 -36 0 -36 -5 0 -44 41 -86 91 -125 148 -218 360 -268 611 -19 94 -22 147
-23 308 l0 196 -120 16 c-343 48 -669 192 -879 388 -54 50 -136 152 -136 169
0 6 39 -14 88 -45 48 -31 128 -78 177 -105z m3985 141 c0 -14 -110 -140 -164
-187 -212 -187 -576 -335 -907 -369 l-64 -6 0 -202 c-1 -151 -5 -223 -18 -288
-51 -256 -145 -477 -256 -606 -25 -30 -58 -68 -73 -85 -14 -18 -29 -29 -32
-26 -3 3 17 59 45 125 63 149 114 321 141 484 17 102 21 158 18 310 -1 102 -3
214 -3 250 -2 85 28 142 95 183 41 26 65 32 180 44 248 27 467 86 673 183 102
47 274 144 324 182 26 20 41 23 41 8z m-2686 -753 c22 -12 49 -38 60 -57 20
-33 21 -48 18 -265 -5 -321 25 -554 104 -827 39 -133 35 -162 -13 -104 -97
119 -212 460 -254 756 -13 93 -16 385 -4 468 6 44 10 52 28 52 12 0 40 -10 61
-23z m1213 -34 c4 -32 7 -139 7 -238 -1 -150 -6 -203 -28 -319 -28 -148 -76
-330 -108 -411 -58 -147 -150 -297 -170 -277 -4 4 6 52 22 107 81 275 111 509
109 841 -2 224 -1 244 17 275 22 37 86 79 121 79 19 0 23 -7 30 -57z m1177
-25 c62 -18 73 -48 17 -48 -38 0 -62 -30 -68 -83 -4 -36 -1 -49 16 -66 11 -11
28 -21 36 -21 9 0 49 33 90 74 63 64 80 75 118 81 56 9 111 -15 138 -59 39
-64 16 -189 -45 -245 -24 -23 -27 -23 -44 -8 -18 17 -17 19 19 58 70 76 60
179 -18 179 -10 0 -50 -28 -88 -63 -39 -35 -85 -69 -102 -76 -39 -16 -91 -8
-126 19 -29 23 -52 98 -43 137 9 36 48 133 54 133 3 0 23 -5 46 -12z m-3637
-70 c32 -29 59 -89 68 -149 l7 -46 -44 -16 c-24 -9 -47 -17 -51 -17 -16 0 -6
40 13 50 49 26 3 150 -56 150 -34 0 -52 -34 -62 -120 -14 -109 -32 -147 -84
-170 -69 -31 -103 -25 -161 28 -41 39 -70 156 -51 205 3 8 14 12 28 10 21 -4
23 -9 18 -54 -8 -89 47 -164 106 -145 25 8 30 21 47 116 20 113 38 146 91 175
38 21 99 13 131 -17z m115 -275 c11 -27 54 -117 94 -201 41 -84 74 -157 74
-162 0 -6 -10 -10 -22 -10 -19 0 -30 15 -60 80 l-37 81 -153 -78 c-84 -42
-170 -85 -191 -95 l-37 -17 -19 37 -19 38 185 94 c101 52 187 98 189 102 2 4
-8 32 -23 63 -26 53 -29 55 -63 53 -46 -4 -47 18 0 43 50 27 59 24 82 -28z
m3383 -2 c-6 -26 -3 -30 42 -49 61 -26 327 -152 332 -158 5 -4 -18 -84 -23
-84 -2 0 -91 42 -197 93 -193 93 -194 93 -211 73 -12 -15 -20 -18 -27 -10 -15
14 53 164 75 164 12 0 14 -7 9 -29z m-4 -272 c16 -17 29 -42 29 -55 0 -29 1
-29 42 -4 40 24 67 25 112 4 74 -36 88 -145 30 -238 -16 -26 -39 -65 -52 -86
l-22 -38 -180 114 c-98 63 -185 114 -193 114 -8 0 -17 -7 -21 -15 -3 -8 -10
-15 -16 -15 -22 0 -21 30 3 62 14 18 41 61 61 95 42 71 72 92 134 93 37 0 49
-5 73 -31z m-3166 -146 c14 -21 25 -46 25 -57 0 -10 -43 -91 -95 -179 -53 -88
-94 -162 -92 -164 3 -2 44 8 93 22 49 15 112 33 139 41 28 7 60 16 73 20 19 6
22 11 16 40 -8 41 7 45 33 8 10 -14 29 -39 42 -55 14 -18 20 -36 17 -46 -5
-12 -9 -14 -18 -5 -19 19 -38 15 -250 -43 -110 -30 -205 -55 -212 -55 -7 0
-21 9 -30 19 -17 18 -14 25 62 163 43 78 96 172 116 207 22 39 34 71 31 82 -7
20 1 39 15 39 5 0 21 -17 35 -37z m2912 -183 c42 -25 56 -54 59 -120 l3 -55
103 -13 c57 -7 113 -11 126 -9 16 3 22 -1 22 -14 0 -10 -10 -28 -22 -40 -22
-20 -30 -21 -128 -15 -58 3 -115 9 -126 12 -15 4 -23 0 -28 -13 -6 -14 7 -32
59 -79 l68 -61 -26 -38 -25 -37 -79 73 c-43 40 -107 100 -143 133 -97 92 -95
90 -121 72 -24 -17 -49 -77 -43 -104 86 -383 94 -435 78 -453 -10 -11 -21 -19
-26 -19 -4 0 -47 26 -96 58 -251 168 -298 197 -322 197 -40 0 -30 25 21 54
l47 25 53 -36 c30 -20 101 -68 158 -108 56 -39 105 -69 107 -67 3 2 -12 79
-32 170 l-37 166 -28 -6 c-20 -4 -29 -1 -29 8 0 17 90 109 107 109 7 0 13 8
13 18 0 10 12 29 26 43 15 13 45 47 66 74 45 56 101 95 138 95 14 0 39 -9 57
-20z m-2595 -228 c7 -10 47 -45 88 -77 128 -102 159 -150 160 -246 1 -224
-262 -326 -423 -165 -18 18 -49 45 -69 60 -21 16 -38 33 -38 38 0 6 40 62 88
126 187 247 173 225 157 242 -8 9 -15 22 -15 28 0 19 37 14 52 -6z m438 -328
c73 -37 89 -61 43 -66 -24 -3 -36 -22 -120 -190 l-92 -187 -39 16 -40 15 94
196 c88 182 93 196 78 213 -14 15 -13 39 2 39 2 0 35 -16 74 -36z m171 -75
c19 -7 39 -17 46 -23 6 -6 22 -95 34 -198 13 -104 26 -188 30 -188 4 0 16 15
28 33 25 39 38 57 115 166 60 84 60 84 38 99 -35 23 -28 44 11 37 33 -6 92
-13 115 -14 23 -2 12 -31 -14 -37 -27 -7 -70 -61 -219 -277 -68 -99 -84 -116
-107 -117 -15 0 -29 4 -32 9 -3 4 -19 100 -36 212 -17 112 -33 219 -36 237 -3
19 -11 32 -19 32 -8 0 -15 9 -15 20 0 23 13 25 61 9z m1039 -12 c0 -7 -10 -18
-21 -25 -27 -17 -24 -36 36 -258 25 -91 45 -171 45 -178 0 -11 -78 -43 -84
-34 -2 2 -17 62 -35 133 -18 72 -37 148 -43 170 l-11 40 -18 -70 c-11 -38 -31
-115 -46 -170 -25 -95 -35 -115 -59 -115 -5 0 -54 65 -109 145 -54 80 -100
144 -101 142 -2 -2 2 -76 8 -165 6 -89 9 -164 6 -167 -3 -3 -21 -8 -40 -12
l-35 -5 -13 213 c-14 223 -15 225 -65 255 -33 19 -7 34 59 34 l64 0 45 -67
c24 -38 75 -115 111 -172 37 -57 69 -102 71 -100 1 2 20 69 40 149 59 236 60
236 108 254 53 18 87 20 87 3z"/>
<path d="M3725 4152 c-16 -11 -37 -27 -45 -36 -13 -16 -12 -20 4 -31 42 -31
211 -27 231 6 4 5 -9 25 -28 44 -30 30 -41 35 -83 35 -30 0 -61 -7 -79 -18z"/>
<path d="M4133 4135 c-34 -34 -36 -38 -20 -50 39 -28 199 -27 228 2 29 29 -37
76 -113 81 -56 4 -59 3 -95 -33z"/>
<path d="M3968 3919 c-31 -12 -37 -33 -12 -43 28 -11 100 -6 118 7 16 12 16
15 3 26 -21 17 -77 22 -109 10z"/>
<path d="M3866 3762 c-9 -15 47 -60 93 -77 51 -18 98 -12 148 18 35 20 57 50
46 61 -10 9 -281 7 -287 -2z"/>
<path d="M5542 2510 c-12 -12 -22 -25 -22 -31 0 -9 94 -73 124 -85 22 -9 48
49 37 79 -21 55 -98 75 -139 37z"/>
<path d="M5760 2444 c-14 -9 -35 -30 -48 -47 l-23 -32 22 -15 c11 -8 48 -32
82 -52 l60 -38 22 33 c31 46 38 73 24 99 -17 31 -33 46 -64 58 -35 13 -45 12
-75 -6z"/>
<path d="M5297 2162 l-27 -28 70 -69 70 -69 22 22 c16 16 23 34 23 63 0 34 -6
46 -38 75 -46 43 -83 45 -120 6z"/>
<path d="M2774 1765 l-117 -156 29 -30 c60 -63 143 -86 203 -55 41 22 100 92
128 153 23 50 24 59 13 97 -12 40 -106 146 -130 146 -5 0 -62 -70 -126 -155z"/>
</g>
</svg>
